<svg width="24" height="24" viewBox="0 0 24 24" fill="none" xmlns="http://www.w3.org/2000/svg">
<path fill-rule="evenodd" clip-rule="evenodd" d="M12.4067 5.08645C12.1478 4.97118 11.8518 4.97118 11.5929 5.08645C11.5479 5.1065 11.4144 5.18704 11.1427 5.57159C10.8741 5.95184 10.5597 6.49444 10.0955 7.29845L5.2449 15.6999C4.78037 16.5045 4.4675 17.0485 4.27245 17.4716C4.07521 17.8994 4.07213 18.0554 4.07731 18.1047C4.10691 18.3863 4.25479 18.6425 4.48424 18.8092C4.52418 18.8382 4.66061 18.9135 5.12934 18.9565C5.5929 18.9991 6.21997 19.0001 7.14851 19.0001H16.8514C17.78 19.0001 18.407 18.9991 18.8705 18.9565C19.3392 18.9135 19.4756 18.8382 19.5156 18.8092C19.7451 18.6424 19.893 18.3862 19.9226 18.1047C19.9278 18.0554 19.9247 17.8993 19.7275 17.4715C19.5325 17.0485 19.2197 16.5044 18.7552 15.6999L13.9054 7.29986C13.4409 6.49526 13.1262 5.95233 12.8574 5.57193C12.5856 5.18728 12.452 5.1066 12.4067 5.08645ZM10.7794 3.25936C11.5561 2.91355 12.4435 2.91355 13.2202 3.25936C13.7686 3.50353 14.1593 3.94873 14.4907 4.41769C14.8193 4.88272 15.1799 5.50729 15.6145 6.26007L20.5094 14.7383C20.9444 15.4917 21.3053 16.1167 21.5438 16.6342C21.7843 17.1558 21.9744 17.7168 21.9117 18.3137C21.8228 19.1597 21.3787 19.9277 20.6911 20.4272C20.2055 20.78 19.6248 20.8957 19.0533 20.9481C18.4873 21.0001 17.7675 21.0001 16.9002 21.0001H7.0997C6.23243 21.0001 5.51265 21.0001 4.94657 20.9481C4.37506 20.8957 3.79428 20.7801 3.30867 20.4272C2.62099 19.9276 2.17716 19.1595 2.08826 18.3137C2.02551 17.7167 2.21576 17.1557 2.45619 16.6342C2.69465 16.117 3.05531 15.4923 3.48999 14.7395L8.3878 6.2562C8.82136 5.50522 9.18125 4.88183 9.5093 4.41752C9.84046 3.94881 10.231 3.50352 10.7794 3.25936ZM12 8.00006C12.5523 8.00006 13 8.44777 13 9.00006V13.0001C13 13.5523 12.5523 14.0001 12 14.0001C11.4477 14.0001 11 13.5523 11 13.0001V9.00006C11 8.44777 11.4477 8.00006 12 8.00006ZM10.9502 16.0001C10.9502 15.4478 11.3979 15.0001 11.9502 15.0001H12.0508C12.603 15.0001 13.0508 15.4478 13.0508 16.0001V16.1001C13.0508 16.6516 12.6042 17.099 12.0527 17.1001L11.9521 17.1003C11.6866 17.1008 11.4317 16.9956 11.2438 16.8081C11.0558 16.6205 10.9502 16.3658 10.9502 16.1003V16.0001Z" fill="current"/>
</svg>
