<svg width="25" height="25" viewBox="0 0 25 25" fill="none" xmlns="http://www.w3.org/2000/svg">
<path d="M13.372 3.89621C13.1183 4.14998 12.9758 4.49411 12.9758 4.85294C12.9758 5.21177 13.1183 5.55591 13.372 5.80968L20.0705 12.5082L13.372 19.2067C13.1255 19.4619 12.9891 19.8037 12.9922 20.1585C12.9953 20.5133 13.1376 20.8528 13.3885 21.1037C13.6394 21.3546 13.9788 21.4969 14.3336 21.4999C14.6884 21.503 15.0303 21.3666 15.2855 21.1201L22.9407 13.4649C23.1944 13.2111 23.3369 12.867 23.3369 12.5082C23.3369 12.1493 23.1944 11.8052 22.9407 11.5514L15.2855 3.89621C15.0317 3.64252 14.6876 3.5 14.3287 3.5C13.9699 3.5 13.6258 3.64252 13.372 3.89621Z" fill="white"/>
<path d="M3.01068 3.89621C2.75699 4.14998 2.61448 4.49411 2.61448 4.85294C2.61448 5.21177 2.75699 5.55591 3.01068 5.80968L9.70918 12.5082L3.01068 19.2067C2.76418 19.4619 2.62778 19.8037 2.63087 20.1585C2.63395 20.5133 2.77627 20.8528 3.02717 21.1037C3.27807 21.3546 3.61747 21.4969 3.97229 21.4999C4.3271 21.503 4.66893 21.3666 4.92415 21.1201L12.5794 13.4649C12.8331 13.2111 12.9756 12.867 12.9756 12.5082C12.9756 12.1493 12.8331 11.8052 12.5794 11.5514L4.92415 3.89621C4.67038 3.64252 4.32625 3.5 3.96742 3.5C3.60859 3.5 3.26445 3.64252 3.01068 3.89621Z" fill="white"/>
</svg>
