<svg width="21" height="21" viewBox="0 0 21 21" fill="none" xmlns="http://www.w3.org/2000/svg">
<path d="M20.9754 5.74002C20.9761 5.60841 20.9509 5.47795 20.9011 5.35611C20.8514 5.23427 20.778 5.12346 20.6854 5.03002L16.4454 0.790017C16.3519 0.697335 16.2411 0.62401 16.1193 0.574245C15.9974 0.524481 15.867 0.499256 15.7354 0.500017C15.6038 0.499256 15.4733 0.524481 15.3515 0.574245C15.2296 0.62401 15.1188 0.697335 15.0254 0.790017L12.1954 3.62002L1.26536 14.55C1.17268 14.6435 1.09935 14.7543 1.04959 14.8761C0.999823 14.9979 0.974598 15.1284 0.975359 15.26V19.5C0.975359 19.7652 1.08072 20.0196 1.26825 20.2071C1.45579 20.3947 1.71014 20.5 1.97536 20.5H6.21536C6.35529 20.5076 6.49525 20.4857 6.62618 20.4358C6.7571 20.3858 6.87607 20.3089 6.97536 20.21L17.8454 9.28002L20.6854 6.50002C20.7766 6.4031 20.851 6.29155 20.9054 6.17002C20.915 6.09031 20.915 6.00973 20.9054 5.93002C20.91 5.88347 20.91 5.83657 20.9054 5.79002L20.9754 5.74002ZM5.80536 18.5H2.97536V15.67L12.9054 5.74002L15.7354 8.57002L5.80536 18.5ZM17.1454 7.16002L14.3154 4.33002L15.7354 2.92002L18.5554 5.74002L17.1454 7.16002Z" fill="white"/>
</svg>
