<svg width="13" height="21" viewBox="0 0 13 21" fill="none" xmlns="http://www.w3.org/2000/svg">
<path d="M12.0475 20.0598C12.3293 19.7778 12.4877 19.3954 12.4877 18.9967C12.4877 18.598 12.3293 18.2157 12.0475 17.9337L4.60469 10.4909L12.0475 3.04815C12.3213 2.76457 12.4729 2.38476 12.4695 1.99052C12.4661 1.59629 12.3079 1.21917 12.0291 0.94039C11.7504 0.661612 11.3732 0.503483 10.979 0.500057C10.5848 0.496632 10.205 0.648184 9.92138 0.922075L1.41557 9.42789C1.13369 9.70985 0.975342 10.0922 0.975342 10.4909C0.975342 10.8896 1.13369 11.272 1.41557 11.554L9.92138 20.0598C10.2033 20.3416 10.5857 20.5 10.9844 20.5C11.3831 20.5 11.7655 20.3416 12.0475 20.0598Z" fill="white"/>
</svg>
