<svg width="19" height="21" viewBox="0 0 19 21" fill="none" xmlns="http://www.w3.org/2000/svg">
<path d="M17.9753 6.50001L11.9753 1.24001C11.4253 0.748051 10.7132 0.476074 9.97531 0.476074C9.23738 0.476074 8.52534 0.748051 7.97531 1.24001L1.97531 6.50001C1.65768 6.78408 1.40421 7.13256 1.23179 7.52225C1.05936 7.91194 0.971927 8.33389 0.975315 8.76001V17.5C0.975315 18.2957 1.29139 19.0587 1.85399 19.6213C2.4166 20.1839 3.17967 20.5 3.97531 20.5H15.9753C16.771 20.5 17.534 20.1839 18.0966 19.6213C18.6592 19.0587 18.9753 18.2957 18.9753 17.5V8.75001C18.9773 8.32557 18.8892 7.90555 18.7168 7.51769C18.5444 7.12983 18.2917 6.78296 17.9753 6.50001ZM11.9753 18.5H7.97531V13.5C7.97531 13.2348 8.08067 12.9804 8.26821 12.7929C8.45574 12.6054 8.7101 12.5 8.97531 12.5H10.9753C11.2405 12.5 11.4949 12.6054 11.6824 12.7929C11.87 12.9804 11.9753 13.2348 11.9753 13.5V18.5ZM16.9753 17.5C16.9753 17.7652 16.87 18.0196 16.6824 18.2071C16.4949 18.3946 16.2405 18.5 15.9753 18.5H13.9753V13.5C13.9753 12.7044 13.6592 11.9413 13.0966 11.3787C12.534 10.8161 11.771 10.5 10.9753 10.5H8.97531C8.17966 10.5 7.4166 10.8161 6.85399 11.3787C6.29138 11.9413 5.97531 12.7044 5.97531 13.5V18.5H3.97531C3.7101 18.5 3.45574 18.3946 3.26821 18.2071C3.08067 18.0196 2.97531 17.7652 2.97531 17.5V8.75001C2.97549 8.60802 3.00591 8.4677 3.06453 8.33839C3.12316 8.20907 3.20865 8.09372 3.31531 8.00001L9.31531 2.75001C9.4978 2.58969 9.73241 2.50127 9.97531 2.50127C10.2182 2.50127 10.4528 2.58969 10.6353 2.75001L16.6353 8.00001C16.742 8.09372 16.8275 8.20907 16.8861 8.33839C16.9447 8.4677 16.9751 8.60802 16.9753 8.75001V17.5Z" fill="white"/>
</svg>
