<svg width="50" height="51" viewBox="0 0 50 51" fill="none" xmlns="http://www.w3.org/2000/svg">
<path d="M39.5833 23.4166H27.0833V10.9166C27.0833 10.3641 26.8638 9.83421 26.4731 9.44351C26.0824 9.05281 25.5525 8.83331 25 8.83331C24.4475 8.83331 23.9176 9.05281 23.5269 9.44351C23.1362 9.83421 22.9167 10.3641 22.9167 10.9166V23.4166H10.4167C9.86413 23.4166 9.33423 23.6361 8.94353 24.0268C8.55283 24.4175 8.33333 24.9474 8.33333 25.5C8.33333 26.0525 8.55283 26.5824 8.94353 26.9731C9.33423 27.3638 9.86413 27.5833 10.4167 27.5833H22.9167V40.0833C22.9167 40.6358 23.1362 41.1658 23.5269 41.5565C23.9176 41.9472 24.4475 42.1666 25 42.1666C25.5525 42.1666 26.0824 41.9472 26.4731 41.5565C26.8638 41.1658 27.0833 40.6358 27.0833 40.0833V27.5833H39.5833C40.1359 27.5833 40.6658 27.3638 41.0565 26.9731C41.4472 26.5824 41.6667 26.0525 41.6667 25.5C41.6667 24.9474 41.4472 24.4175 41.0565 24.0268C40.6658 23.6361 40.1359 23.4166 39.5833 23.4166Z" fill="white"/>
</svg>
