<svg width="12" height="21" viewBox="0 0 12 21" fill="none" xmlns="http://www.w3.org/2000/svg">
<path d="M0.927884 0.940231C0.646004 1.2222 0.487653 1.60457 0.487653 2.00327C0.487653 2.40197 0.646004 2.78434 0.927884 3.06631L8.37065 10.5091L0.927884 17.9518C0.653993 18.2354 0.502439 18.6152 0.505865 19.0095C0.509291 19.4037 0.667422 19.7808 0.946199 20.0596C1.22498 20.3384 1.6021 20.4965 1.99633 20.4999C2.39057 20.5034 2.77038 20.3518 3.05396 20.0779L11.5598 11.5721C11.8416 11.2902 12 10.9078 12 10.5091C12 10.1104 11.8416 9.728 11.5598 9.44604L3.05396 0.940231C2.772 0.658351 2.38962 0.5 1.99092 0.5C1.59222 0.5 1.20985 0.658351 0.927884 0.940231Z" fill="white"/>
</svg>
