<svg width="21" height="21" viewBox="0 0 21 21" fill="none" xmlns="http://www.w3.org/2000/svg">
<path d="M1.47534 7.35988L10.4753 12.5599C10.6274 12.6477 10.7998 12.6939 10.9753 12.6939C11.1509 12.6939 11.3233 12.6477 11.4753 12.5599L20.4753 7.35988C20.6265 7.27263 20.7522 7.14734 20.8399 6.99647C20.9276 6.8456 20.9743 6.6744 20.9753 6.49988C20.976 6.32367 20.9302 6.15041 20.8424 5.99763C20.7546 5.84485 20.6279 5.71799 20.4753 5.62988L11.4753 0.439883C11.3233 0.352115 11.1509 0.305908 10.9753 0.305908C10.7998 0.305908 10.6274 0.352115 10.4753 0.439883L1.47534 5.62988C1.32274 5.71799 1.19612 5.84485 1.10832 5.99763C1.02052 6.15041 0.974642 6.32367 0.975342 6.49988C0.976395 6.6744 1.0231 6.8456 1.11082 6.99647C1.19853 7.14734 1.3242 7.27263 1.47534 7.35988ZM10.9753 2.49988L17.9753 6.49988L10.9753 10.4999L3.97534 6.49988L10.9753 2.49988ZM19.4753 9.66988L10.9753 14.4999L2.47534 9.62988C2.36121 9.56376 2.23512 9.52088 2.10434 9.50369C1.97356 9.48651 1.84068 9.49537 1.71334 9.52976C1.586 9.56415 1.46672 9.6234 1.36237 9.70408C1.25803 9.78477 1.17067 9.88529 1.10534 9.99988C0.974969 10.2295 0.940703 10.5014 1.01002 10.7561C1.07934 11.0109 1.24661 11.228 1.47534 11.3599L10.4753 16.5599C10.6274 16.6477 10.7998 16.6939 10.9753 16.6939C11.1509 16.6939 11.3233 16.6477 11.4753 16.5599L20.4753 11.3599C20.7041 11.228 20.8713 11.0109 20.9407 10.7561C21.01 10.5014 20.9757 10.2295 20.8453 9.99988C20.78 9.88529 20.6927 9.78477 20.5883 9.70408C20.484 9.6234 20.3647 9.56415 20.2373 9.52976C20.11 9.49537 19.9771 9.48651 19.8463 9.50369C19.7156 9.52088 19.5895 9.56376 19.4753 9.62988V9.66988ZM19.4753 13.6699L10.9753 18.4999L2.47534 13.6299C2.36121 13.5638 2.23512 13.5209 2.10434 13.5037C1.97356 13.4865 1.84068 13.4954 1.71334 13.5298C1.586 13.5642 1.46672 13.6234 1.36237 13.7041C1.25803 13.7848 1.17067 13.8853 1.10534 13.9999C0.974969 14.2295 0.940703 14.5014 1.01002 14.7561C1.07934 15.0109 1.24661 15.228 1.47534 15.3599L10.4753 20.5599C10.6274 20.6477 10.7998 20.6939 10.9753 20.6939C11.1509 20.6939 11.3233 20.6477 11.4753 20.5599L20.4753 15.3599C20.7041 15.228 20.8713 15.0109 20.9407 14.7561C21.01 14.5014 20.9757 14.2295 20.8453 13.9999C20.78 13.8853 20.6927 13.7848 20.5883 13.7041C20.484 13.6234 20.3647 13.5642 20.2373 13.5298C20.11 13.4954 19.9771 13.4865 19.8463 13.5037C19.7156 13.5209 19.5895 13.5638 19.4753 13.6299V13.6699Z" fill="white"/>
</svg>
