<svg width="12" height="13" viewBox="0 0 12 13" fill="none" xmlns="http://www.w3.org/2000/svg">
<path d="M11.3333 3.94305L7.33334 0.790819C6.96667 0.495999 6.49197 0.333008 6.00002 0.333008C5.50807 0.333008 5.03338 0.495999 4.6667 0.790819L0.666725 3.94305C0.454972 4.11329 0.285994 4.32213 0.171043 4.55566C0.056092 4.78919 -0.00219502 5.04206 6.31956e-05 5.29743V10.5352C6.31956e-05 11.012 0.210775 11.4693 0.585846 11.8064C0.960916 12.1436 1.46962 12.333 2.00005 12.333H9.99999C10.5304 12.333 11.0391 12.1436 11.4142 11.8064C11.7893 11.4693 12 11.012 12 10.5352V5.29143C12.0013 5.03708 11.9425 4.78536 11.8276 4.55293C11.7127 4.32049 11.5442 4.11262 11.3333 3.94305ZM7.33334 11.1344H4.6667V8.13803C4.6667 7.97909 4.73693 7.82666 4.86196 7.71427C4.98698 7.60188 5.15655 7.53874 5.33336 7.53874H6.66668C6.84349 7.53874 7.01306 7.60188 7.13808 7.71427C7.26311 7.82666 7.33334 7.97909 7.33334 8.13803V11.1344ZM10.6667 10.5352C10.6667 10.6941 10.5964 10.8465 10.4714 10.9589C10.3464 11.0713 10.1768 11.1344 9.99999 11.1344H8.66667V8.13803C8.66667 7.66121 8.45596 7.20392 8.08089 6.86676C7.70582 6.52959 7.19711 6.34018 6.66668 6.34018H5.33336C4.80293 6.34018 4.29422 6.52959 3.91915 6.86676C3.54408 7.20392 3.33337 7.66121 3.33337 8.13803V11.1344H2.00005C1.82324 11.1344 1.65367 11.0713 1.52865 10.9589C1.40362 10.8465 1.33339 10.6941 1.33339 10.5352V5.29143C1.33351 5.20634 1.35378 5.12225 1.39286 5.04476C1.43195 4.96726 1.48894 4.89813 1.56005 4.84197L5.56002 1.69574C5.68168 1.59966 5.83808 1.54667 6.00002 1.54667C6.16196 1.54667 6.31836 1.59966 6.44002 1.69574L10.44 4.84197C10.5111 4.89813 10.5681 4.96726 10.6072 5.04476C10.6463 5.12225 10.6665 5.20634 10.6667 5.29143V10.5352Z" fill="white"/>
</svg>
