<svg width="10" height="9" viewBox="0 0 10 9" fill="none" xmlns="http://www.w3.org/2000/svg">
<path d="M8 9C8 8.47467 7.89654 7.95448 7.69552 7.46913C7.4945 6.98378 7.19986 6.54279 6.82843 6.17132C6.45699 5.79985 6.01604 5.50519 5.53073 5.30415C5.04543 5.10312 4.52529 4.99964 4 4.99964C3.47471 4.99964 2.95457 5.10312 2.46927 5.30415C1.98396 5.50519 1.54301 5.79985 1.17157 6.17132C0.800139 6.54279 0.505501 6.98379 0.304482 7.46913C0.103463 7.95448 -4.59221e-08 8.47467 0 9H8Z" fill="white"/>
<path d="M5.6 2.60014C5.6 3.48388 4.88366 4.20028 4 4.20028C3.11634 4.20028 2.4 3.48388 2.4 2.60014C2.4 1.71641 3.11634 1 4 1C4.88366 1 5.6 1.71641 5.6 2.60014Z" fill="white"/>
<path d="M7.25 4C7.20667 4 7.16 3.99333 7.11667 3.98C7.03378 3.952 6.9618 3.89862 6.91094 3.82742C6.86009 3.75623 6.83294 3.67083 6.83334 3.58333V2.99667C6.36667 2.95333 6 2.56 6 2.08333V0.916667C6 0.410001 6.41 0 6.91667 0H9.08333C9.59 0 10 0.410001 10 0.916667V2.08333C10 2.59 9.59 3 9.08333 3H8.21L7.58334 3.83333C7.50334 3.94 7.38 4 7.25 4Z" fill="#6FADFF"/>
</svg>
