<svg width="9" height="11" viewBox="0 0 9 11" fill="none" xmlns="http://www.w3.org/2000/svg">
<path d="M4.41602 10.8037C2.29688 10.8037 0.792969 9.65527 0.751953 7.9873H2.54297C2.59766 8.78027 3.39062 9.2998 4.41602 9.2998C5.50977 9.2998 6.28906 8.69824 6.28906 7.82324C6.28906 6.93457 5.52344 6.29199 4.23828 6.29199H3.34961V4.9248H4.23828C5.29102 4.9248 6.0293 4.33691 6.01562 3.47559C6.0293 2.6416 5.40039 2.08105 4.42969 2.08105C3.5 2.08105 2.69336 2.60059 2.66602 3.43457H0.957031C0.998047 1.7666 2.50195 0.631836 4.44336 0.631836C6.45312 0.631836 7.75195 1.8623 7.73828 3.37988C7.75195 4.4873 7.01367 5.29395 5.93359 5.5127V5.59473C7.32812 5.78613 8.12109 6.6748 8.10742 7.91895C8.12109 9.58691 6.5625 10.8037 4.41602 10.8037Z" fill="white"/>
</svg>
