<svg width="24" height="24" viewBox="0 0 24 24" fill="none" xmlns="http://www.w3.org/2000/svg">
<path fill-rule="evenodd" clip-rule="evenodd" d="M12.0002 7C8.89501 7 6.04269 9.18967 4.29183 10.9303C3.80075 11.4185 3.74741 11.4941 3.68349 11.69C3.68349 11.69 3.68072 11.6987 3.67677 11.7177C3.67293 11.7361 3.66878 11.7604 3.66502 11.7903C3.6574 11.8509 3.65283 11.9232 3.65283 12C3.65283 12.0768 3.6574 12.1491 3.66502 12.2097C3.66878 12.2396 3.67293 12.2639 3.67677 12.2823C3.68072 12.3013 3.68349 12.31 3.68349 12.31C3.74739 12.5059 3.80065 12.5813 4.29183 13.0696C6.04269 14.8102 8.89501 16.9999 12.0002 16.9999C15.1053 16.9999 17.957 14.8103 19.7079 13.0696C20.199 12.5815 20.2526 12.5056 20.3165 12.31C20.3165 12.31 20.3192 12.3013 20.3232 12.2823C20.327 12.2639 20.3312 12.2396 20.3349 12.2097C20.3425 12.1491 20.3471 12.0768 20.3471 12C20.3471 11.9232 20.3425 11.8509 20.3349 11.7903C20.3312 11.7604 20.327 11.7361 20.3232 11.7177C20.3192 11.6987 20.3165 11.69 20.3165 11.69C20.2526 11.4944 20.1989 11.4184 19.7079 10.9303C17.957 9.18961 15.1053 7 12.0002 7ZM2.88177 9.51193C4.68978 7.7145 8.04405 5 12.0002 5C15.9564 5 19.31 7.71456 21.118 9.51193C21.1369 9.53076 21.1558 9.54949 21.1746 9.56816C21.6007 9.99079 21.9927 10.3797 22.2178 11.0698C22.3161 11.3709 22.3471 11.715 22.3471 12C22.3471 12.2851 22.3161 12.6291 22.2178 12.9303C21.9928 13.6202 21.6007 14.0091 21.1749 14.4315C21.156 14.4503 21.137 14.4691 21.118 14.488C19.3101 16.2854 15.9564 18.9999 12.0002 18.9999C8.04405 18.9999 4.68978 16.2854 2.88177 14.488C2.86282 14.4691 2.84392 14.4504 2.82509 14.4317C2.39872 14.0087 2.00724 13.6204 1.7821 12.9303C1.68386 12.6291 1.65283 12.2851 1.65283 12C1.65283 11.7149 1.68386 11.3709 1.7821 11.0698C2.00727 10.3795 2.39881 9.99109 2.82538 9.56792C2.84411 9.54933 2.86291 9.53068 2.88177 9.51193ZM12 11C11.4477 11 11 11.4477 11 12C11 12.5523 11.4477 13 12 13C12.5523 13 13 12.5523 13 12C13 11.4477 12.5523 11 12 11ZM9 12C9 10.3431 10.3431 9 12 9C13.6569 9 15 10.3431 15 12C15 13.6569 13.6569 15 12 15C10.3431 15 9 13.6569 9 12Z" fill="current"/>
</svg>
