<svg width="20" height="20" viewBox="0 0 20 20" fill="none" xmlns="http://www.w3.org/2000/svg">
<path fill-rule="evenodd" clip-rule="evenodd" d="M3.33333 8.33329V11.3215L3.0895 11.5653L3.0697 11.5851C2.99148 11.663 2.8943 11.7599 2.81305 11.8731C2.66298 12.0821 2.56385 12.3224 2.52237 12.5752C2.49988 12.7122 2.50013 12.8494 2.50033 12.9586L2.50037 12.988L2.50019 13.0579C2.49927 13.3011 2.49815 13.6001 2.58779 13.8659C2.75421 14.3593 3.14174 14.7463 3.63458 14.9125C3.89984 15.002 4.19779 15.0008 4.43907 14.9999L4.50833 14.9997H6.66667C6.66667 16.8407 8.15905 18.3333 10 18.3333C11.8409 18.3333 13.3333 16.8409 13.3333 15L15.4921 14.9998L15.5614 14.9999C15.8026 15.0009 16.1012 15.002 16.3664 14.9125C16.8606 14.7458 17.2464 14.3579 17.4123 13.8659C17.502 13.6002 17.5009 13.3011 17.4999 13.0579L17.4998 12.988L17.4998 12.9604C17.5 12.8497 17.5002 12.7127 17.4776 12.5752C17.4364 12.3242 17.3385 12.0836 17.1874 11.8731C17.1064 11.7603 17.0087 11.6629 16.9315 11.5861L16.9108 11.5654L16.6667 11.3213V8.33329C16.6667 4.65139 13.6819 1.66662 10 1.66663C6.31811 1.66664 3.33333 4.6514 3.33333 8.33329ZM10 3.33329C7.23858 3.3333 5 5.57188 5 8.33329V11.4353C5 11.8049 4.85326 12.1586 4.5926 12.4192L4.26801 12.7438C4.21507 12.7968 4.18852 12.8235 4.16991 12.8433L4.16808 12.8453L4.16799 12.8478C4.16713 12.8752 4.16704 12.9127 4.16704 12.988C4.16704 13.1581 4.16735 13.2511 4.17117 13.3186L4.17177 13.3284L4.18072 13.329C4.2475 13.3328 4.33951 13.3331 4.50833 13.3331H7.50037L7.51971 13.3333H12.4817L12.5 13.3331H15.4921C15.6609 13.3331 15.7531 13.3328 15.8201 13.329L15.8284 13.3285L15.829 13.3186C15.8328 13.2511 15.8331 13.1581 15.8331 12.988C15.8331 12.9133 15.833 12.8756 15.8321 12.8486L15.832 12.845L15.8308 12.8438C15.8119 12.8237 15.7853 12.7969 15.7322 12.7439L15.4076 12.4192C15.1467 12.1582 15 11.8044 15 11.4353V8.33329C15 5.57186 12.7614 3.33329 10 3.33329ZM8.33333 15C8.33333 15.9204 9.07953 16.6666 10 16.6666C10.9205 16.6666 11.6667 15.9204 11.6667 15H8.33333Z" fill="color"/>
</svg>
