<svg width="24" height="24" viewBox="0 0 24 24" fill="none" xmlns="http://www.w3.org/2000/svg">
<path fill-rule="evenodd" clip-rule="evenodd" d="M12.2838 4.69877C12.0987 4.64403 11.9011 4.64403 11.716 4.69877C11.6649 4.71389 11.5752 4.75121 11.3844 4.89394C11.1834 5.04418 10.9372 5.25877 10.5529 5.59501L5.75128 9.7964C5.31123 10.1814 5.22865 10.2644 5.17308 10.3463C5.10817 10.4419 5.06085 10.5462 5.03248 10.6547C5.00759 10.75 5 10.8655 5 11.4522V17.0002C5 17.4798 5.00054 17.7894 5.01671 18.0263C5.03226 18.2542 5.05887 18.341 5.07612 18.3827C5.17789 18.6284 5.37269 18.8231 5.61706 18.9243C5.65867 18.9416 5.7455 18.9682 5.9735 18.9838C6.21048 18.9999 6.52012 19.0005 6.99974 19.0005C7.47935 19.0005 7.78914 18.9999 8.02627 18.9838C8.2545 18.9682 8.3414 18.9415 8.38294 18.9243C8.62729 18.8231 8.822 18.6285 8.92378 18.3828C8.94104 18.3411 8.96767 18.2542 8.98324 18.0262C8.99943 17.7893 9 17.4796 9 17.0001V16.0001C9 14.3432 10.3431 13.0001 12 13.0001C13.6569 13.0001 15 14.3432 15 16.0001V17.0001C15 17.4797 15.0005 17.7893 15.0167 18.0263C15.0323 18.2543 15.0589 18.3411 15.0761 18.3828C15.1779 18.6284 15.3726 18.8231 15.6171 18.9243C15.6587 18.9416 15.7455 18.9682 15.9735 18.9838C16.2105 18.9999 16.5201 19.0005 16.9997 19.0005C17.4794 19.0005 17.7891 18.9999 18.0263 18.9838C18.2545 18.9682 18.3414 18.9415 18.3829 18.9243C18.6272 18.8232 18.822 18.6285 18.9238 18.3827C18.9411 18.341 18.9677 18.2541 18.9832 18.0262C18.9994 17.7893 19 17.4797 19 17.0002V11.4522C19 10.867 18.992 10.7504 18.9671 10.6547C18.9382 10.5443 18.891 10.4403 18.8272 10.3463C18.7716 10.2645 18.6891 10.1816 18.2489 9.7964L13.4489 5.5964C13.0641 5.25971 12.8174 5.04478 12.6162 4.89434C12.425 4.75139 12.3351 4.71395 12.2838 4.69877ZM11.1488 2.78087C11.7041 2.61666 12.2957 2.61666 12.851 2.78087C13.2198 2.88994 13.5266 3.07786 13.8138 3.29252C14.0843 3.49482 14.3894 3.76173 14.7404 4.06893L19.5659 8.29125C19.5873 8.30998 19.6086 8.32853 19.6297 8.34695C19.9672 8.64179 20.2625 8.89976 20.4819 9.22299C20.674 9.50587 20.8158 9.81887 20.9021 10.1491C21.0008 10.5268 21.0004 10.919 21 11.3664C21 11.3948 21 11.4234 21 11.4522V17.0307C21 17.47 21 17.849 20.9786 18.1626C20.9561 18.4924 20.9065 18.8222 20.7715 19.148C20.4674 19.8824 19.8841 20.4673 19.1483 20.7721C18.8223 20.9071 18.4922 20.9566 18.1624 20.9791C17.849 21.0005 17.4703 21.0005 17.0316 21.0005H16.9678C16.5291 21.0005 16.1506 21.0005 15.8374 20.9791C15.5075 20.9566 15.1776 20.9071 14.8517 20.7721C14.116 20.4674 13.5326 19.8826 13.2284 19.1481C13.0934 18.8222 13.0439 18.4923 13.0213 18.1625C13 17.8492 13 17.4707 13 17.0321V16.0001C13 15.4478 12.5523 15.0001 12 15.0001C11.4477 15.0001 11 15.4478 11 16.0001L11 17.0306C11 17.4699 11 17.8489 10.9786 18.1625C10.9561 18.4924 10.9065 18.8223 10.7715 19.1481C10.4673 19.8825 9.88407 20.4673 9.14831 20.7721C8.82231 20.9071 8.49221 20.9566 8.16235 20.9791C7.84896 21.0005 7.47034 21.0005 7.03163 21.0005H6.96775C6.5291 21.0005 6.15062 21.0005 5.83736 20.9791C5.50753 20.9566 5.17762 20.9071 4.85169 20.7721C4.11594 20.4673 3.53257 19.8825 3.22836 19.148C3.09337 18.8221 3.04386 18.4923 3.02135 18.1625C2.99998 17.8492 2.99999 17.4708 3 17.0322L3 11.4522C3 11.4215 2.99997 11.3911 2.99994 11.3609C2.99949 10.917 2.99909 10.5255 3.09746 10.1491C3.18425 9.81696 3.32742 9.50423 3.51833 9.22299C3.73783 8.89964 4.03316 8.64166 4.37099 8.34656C4.39192 8.32827 4.41302 8.30984 4.43427 8.29125L9.23586 4.08986L9.26252 4.06653C9.61249 3.76029 9.91674 3.49405 10.1867 3.2922C10.4735 3.07774 10.7802 2.8899 11.1488 2.78087Z" fill="current"/>
</svg>
