<svg width="24" height="24" viewBox="0 0 24 24" fill="none" xmlns="http://www.w3.org/2000/svg">
<path fill-rule="evenodd" clip-rule="evenodd" d="M4.5677 4L4.59961 4.00001L7.2409 4C8.04588 3.99999 8.71029 3.99998 9.25153 4.0442C9.81365 4.09012 10.3304 4.18868 10.8158 4.43598C11.2675 4.66615 11.6685 4.97863 11.9999 5.35439C12.331 4.9787 12.7319 4.66619 13.1837 4.43598C13.6691 4.18868 14.1858 4.09012 14.7479 4.0442C15.2891 3.99998 15.9535 3.99999 16.7585 4L19.4317 4C19.6841 3.99997 19.9299 3.99994 20.1381 4.01695C20.3667 4.03562 20.6365 4.07967 20.908 4.21799C21.2849 4.41003 21.5902 4.71617 21.7816 5.09191C21.9198 5.36299 21.964 5.63247 21.9828 5.86123C22.0001 6.0707 22 6.31793 22 6.57199V15.4283C22 15.6823 22.0001 15.9294 21.9828 16.1388C21.964 16.3676 21.9197 16.6368 21.7816 16.9077C21.5911 17.2817 21.287 17.5892 20.9083 17.7821C20.6371 17.9203 20.3675 17.9644 20.1391 17.9831C19.9312 18.0001 19.6858 18 19.4339 18L16.5693 18C15.5678 18 15.2746 18.0102 15.024 18.0863C14.7726 18.1626 14.5392 18.2876 14.3359 18.4547C14.1335 18.6211 13.9624 18.859 13.4071 19.6919L12.8321 20.5545C12.6466 20.8327 12.3344 20.9998 12.0001 20.9998C11.6657 20.9998 11.3535 20.8328 11.168 20.5546L10.5865 19.6825C10.0353 18.8558 9.86586 18.6199 9.66485 18.4547C9.46263 18.2885 9.22781 18.163 8.97511 18.0863C8.72447 18.0102 8.4322 18 7.43073 18L4.56608 18C4.31424 18 4.06884 18.0001 3.86096 17.9831C3.63254 17.9644 3.36311 17.9203 3.09191 17.7821C2.71451 17.5898 2.40919 17.2829 2.21799 16.9077C2.07975 16.6364 2.03565 16.3668 2.01695 16.1382C1.99994 15.9301 1.99997 15.6844 2 15.432L2.00001 15.4001V6.6001L2 6.56822C1.99997 6.31582 1.99994 6.06999 2.01695 5.86179C2.03562 5.63323 2.07966 5.3634 2.21799 5.09191C2.40974 4.71559 2.71559 4.40974 3.09191 4.21799C3.36326 4.07973 3.63286 4.03564 3.86149 4.01695C4.0696 3.99994 4.31534 3.99997 4.5677 4ZM13 16.9654V9.79981C13 8.94322 13.0008 8.36103 13.0376 7.91104C13.0734 7.47276 13.1383 7.24861 13.218 7.09218C13.4099 6.71551 13.7157 6.40956 14.0917 6.21799C14.2481 6.13831 14.4723 6.07338 14.9108 6.03756C15.3609 6.00078 15.9432 6.00001 16.7998 6.00001H19.3998C19.6963 6.00001 19.8586 6.00078 19.9753 6.01031L19.9883 6.01144L19.9896 6.02517C19.9991 6.14159 20 6.30394 20 6.6001V15.4001C20 15.6963 19.9991 15.8584 19.9896 15.9747L19.9883 15.9887L19.9762 15.9897C19.8599 15.9992 19.698 16 19.402 16H16.5693L16.4374 16C15.6268 15.9995 15.0142 15.9991 14.4428 16.1726C13.9394 16.3255 13.4721 16.5758 13.066 16.9096C13.0437 16.9279 13.0217 16.9465 13 16.9654ZM11 9.79981C11 8.94328 10.9992 8.36108 10.9624 7.91112C10.9265 7.47287 10.8616 7.24867 10.7818 7.09218C10.5901 6.71576 10.284 6.40969 9.90779 6.21799C9.75141 6.13831 9.52717 6.07338 9.08868 6.03756C8.63854 6.00078 8.05619 6.00001 7.19961 6.00001H4.59961C4.5048 6.00001 4.42372 6.00008 4.35348 6.0005C4.20405 6.0014 4.10367 6.00383 4.02442 6.01031L4.01145 6.01143L4.01031 6.02461C4.00078 6.14126 4.00001 6.30359 4.00001 6.6001V9.30159V15.4001C4.00001 15.6966 4.00078 15.8588 4.0103 15.9752L4.01147 15.9886L4.02397 15.9897C4.1402 15.9992 4.30198 16 4.59797 16H7.43073L7.56259 16C8.37327 15.9995 8.98495 15.9991 9.55628 16.1726C10.0583 16.3251 10.5276 16.575 10.9348 16.9096C10.9568 16.9277 10.9785 16.9461 11 16.9648V9.79981Z" fill="current"/>
</svg>
