<svg width="24" height="24" viewBox="0 0 24 24" fill="none" xmlns="http://www.w3.org/2000/svg">
<path fill-rule="evenodd" clip-rule="evenodd" d="M10.5677 3H13.4315C13.6839 2.99997 13.9298 2.99994 14.1381 3.01694C14.3666 3.0356 14.6366 3.07961 14.9082 3.21799C15.2855 3.41024 15.5904 3.71658 15.7816 4.09191C15.9198 4.36299 15.964 4.63247 15.9828 4.86123C16.0001 5.0707 16 5.31793 16 5.57199L16 7.00001L19.4318 7C19.6843 6.99997 19.9302 6.99994 20.1385 7.01694C20.367 7.03559 20.6371 7.07958 20.9088 7.21799C21.2873 7.41087 21.591 7.71783 21.7816 8.09191C21.9198 8.36299 21.964 8.63247 21.9828 8.86123C22.0001 9.0707 22 9.31793 22 9.57199V20.0001C22 20.2653 21.8946 20.5197 21.7071 20.7072C21.5196 20.8948 21.2652 21.0001 21 21.0001L3.00001 21C2.44772 21 2.00001 20.5523 2.00001 20L2 12.5682C1.99997 12.3158 1.99994 12.07 2.01695 11.8618C2.03562 11.6332 2.07966 11.3634 2.21799 11.0919C2.40974 10.7156 2.71559 10.4097 3.09191 10.218C3.36326 10.0797 3.63286 10.0356 3.86149 10.017C4.0696 9.99994 4.31533 9.99997 4.56769 10C4.57832 10 4.58896 10 4.59961 10H8.00001V5.6001C8.00001 5.58946 8 5.57884 8 5.56822C7.99997 5.31582 7.99994 5.06999 8.01695 4.86179C8.03562 4.63323 8.07967 4.3634 8.21799 4.09191C8.40974 3.71559 8.71559 3.40974 9.09191 3.21799C9.36326 3.07973 9.63286 3.03564 9.86149 3.01695C10.0696 2.99994 10.3153 2.99997 10.5677 3ZM8.00001 12H4.59961C4.30307 12 4.14092 12.0008 4.02442 12.0103C4.01986 12.0107 4.01554 12.0111 4.01145 12.0114C4.01107 12.0156 4.01069 12.02 4.01031 12.0246C4.00078 12.1413 4.00001 12.3036 4.00001 12.6001V19H8.00001V12ZM10 19H14V5.6001C14 5.30394 13.9991 5.14159 13.9896 5.02517C13.9892 5.02033 13.9888 5.01575 13.9884 5.01144C13.9843 5.01106 13.9799 5.01069 13.9753 5.01031C13.8586 5.00078 13.6961 5.00001 13.3996 5.00001H10.5996C10.3031 5.00001 10.1409 5.00078 10.0244 5.01031C10.0199 5.01068 10.0155 5.01105 10.0115 5.01143C10.0111 5.01558 10.0107 5.01997 10.0103 5.02461C10.0008 5.14126 10 5.30359 10 5.6001V19ZM16 19L20 19.0001V9.6001C20 9.30394 19.9991 9.14159 19.9896 9.02517C19.9892 9.02031 19.9887 9.01572 19.9883 9.01139C19.9844 9.01103 19.9802 9.01067 19.9759 9.01032C19.859 9.00078 19.6965 9.00001 19.4 9.00001H16V19Z" fill="current"/>
</svg>
