<svg width="24" height="24" viewBox="0 0 24 24" fill="none" xmlns="http://www.w3.org/2000/svg">
<path d="M15.2218 20.753C15.2662 21.0863 15.1551 21.4418 14.8996 21.6751C14.7968 21.7781 14.6748 21.8598 14.5404 21.9156C14.406 21.9713 14.2619 22 14.1164 22C13.9709 22 13.8268 21.9713 13.6924 21.9156C13.558 21.8598 13.4359 21.7781 13.3332 21.6751L8.87821 17.2202C8.75711 17.1017 8.66503 16.9568 8.60914 16.7968C8.55326 16.6369 8.53508 16.4662 8.55603 16.2981V10.6099L3.23453 3.79976C3.05412 3.56815 2.97272 3.27456 3.00811 2.98312C3.04349 2.69169 3.1928 2.4261 3.4234 2.24441C3.63448 2.08888 3.86778 2 4.11219 2H19.6656C19.91 2 20.1433 2.08888 20.3544 2.24441C20.585 2.4261 20.7343 2.69169 20.7697 2.98312C20.8051 3.27456 20.7237 3.56815 20.5433 3.79976L15.2218 10.6099V20.753ZM6.37855 4.22192L10.778 9.84338V15.9759L12.9999 18.1978V9.83227L17.3993 4.22192H6.37855Z" fill="current"/>
</svg>
