<svg width="24" height="24" viewBox="0 0 24 24" fill="none" xmlns="http://www.w3.org/2000/svg">
<path fill-rule="evenodd" clip-rule="evenodd" d="M12.1617 3H16.8388C17.3659 2.99998 17.8205 2.99997 18.1949 3.03058C18.5902 3.06289 18.9831 3.13424 19.3614 3.32698C19.9248 3.61405 20.3851 4.07224 20.6732 4.63781C20.8659 5.016 20.9372 5.40906 20.9695 5.80397C21 6.17815 21 6.6323 21 7.15839V16.8421C21 17.3682 21 17.8222 20.9695 18.1962C20.9372 18.591 20.8659 18.9838 20.6732 19.3619C20.3853 19.9269 19.9254 20.3859 19.3614 20.6732C18.9833 20.8659 18.5905 20.9372 18.1957 20.9695C17.8217 21 17.3677 21 16.8416 21H12.1584C11.6323 21 11.1781 21 10.804 20.9695C10.4091 20.9372 10.016 20.8659 9.63781 20.6732C9.07245 20.3852 8.61415 19.9252 8.32698 19.3616C8.13421 18.9833 8.06288 18.5902 8.03057 18.1949C7.99997 17.8204 7.99998 17.3657 8 16.8386L8 16.75C8 16.1977 8.44772 15.75 9 15.75C9.55228 15.75 10 16.1977 10 16.75V16.8C10 17.3766 10.0008 17.7487 10.0239 18.0319C10.0461 18.3034 10.0838 18.4041 10.109 18.4536C10.2053 18.6426 10.3585 18.7958 10.5458 18.8912C10.595 18.9163 10.6955 18.9539 10.9669 18.9761C11.2498 18.9992 11.6215 19 12.1969 19H16.8031C17.3786 19 17.75 18.9992 18.0327 18.9761C18.3036 18.954 18.4041 18.9164 18.4534 18.8912C18.6421 18.7951 18.7956 18.6415 18.8912 18.4539C18.9164 18.4046 18.9539 18.3041 18.9761 18.0332C18.9992 17.7505 19 17.379 19 16.8036V7.19691C19 6.62146 18.9992 6.2498 18.9761 5.96686C18.9539 5.69554 18.9163 5.59501 18.8912 5.54579C18.7959 5.35871 18.6426 5.20542 18.4534 5.109C18.4038 5.08375 18.3032 5.04611 18.0319 5.02393C17.7488 5.00078 17.3768 5 16.8002 5H12.2002C11.6237 5 11.2513 5.00078 10.9678 5.02393C10.6959 5.04614 10.5952 5.08383 10.5458 5.109C10.3576 5.20487 10.2049 5.35763 10.109 5.54579C10.0838 5.59517 10.0461 5.69595 10.0239 5.9678C10.0008 6.25126 10 6.62365 10 7.2002V7.24859C10 7.80087 9.55228 8.24859 9 8.24859C8.44772 8.24859 8 7.80087 8 7.24859L8 7.16167C7.99998 6.6345 7.99997 6.17965 8.03057 5.80499C8.06286 5.40962 8.13416 5.01625 8.32698 4.63781C8.6146 4.07332 9.07332 3.6146 9.63781 3.32698C10.0162 3.13416 10.4096 3.06286 10.805 3.03057C11.1796 2.99997 11.6345 2.99998 12.1617 3ZM11.2929 8.2929C11.6834 7.90237 12.3166 7.90237 12.7071 8.2929L15.7071 11.2929C16.0976 11.6834 16.0976 12.3166 15.7071 12.7071L12.7071 15.7071C12.3166 16.0976 11.6834 16.0976 11.2929 15.7071C10.9024 15.3166 10.9024 14.6834 11.2929 14.2929L12.5858 13H4C3.44772 13 3 12.5523 3 12C3 11.4477 3.44772 11 4 11H12.5858L11.2929 9.70711C10.9024 9.31658 10.9024 8.68342 11.2929 8.2929Z" fill="current"/>
</svg>
