<svg width="24" height="24" viewBox="0 0 24 24" fill="none" xmlns="http://www.w3.org/2000/svg">
<path fill-rule="evenodd" clip-rule="evenodd" d="M12 9C10.3431 9 9 10.3431 9 12C9 13.6569 10.3431 15 12 15C13.6569 15 15 13.6569 15 12C15 10.3431 13.6569 9 12 9ZM7 12C7 9.23858 9.23858 7 12 7C14.7614 7 17 9.23858 17 12C17 14.7614 14.7614 17 12 17C9.23858 17 7 14.7614 7 12Z" fill="current"/>
<path fill-rule="evenodd" clip-rule="evenodd" d="M17.8345 6.70922C17.8333 6.77848 17.833 6.82354 17.8337 6.87134L17.8345 6.70922ZM18.1891 8.2421C18.212 8.28488 18.2362 8.32674 18.2633 8.37369L18.1891 8.2421ZM18.2837 8.40901C18.3039 8.44434 18.3284 8.48686 18.3507 8.52287L18.2837 8.40901ZM19.3575 9.5131C19.3999 9.53848 19.4401 9.5611 19.4976 9.59308L19.3575 9.5131Z" fill="current"/>
<path fill-rule="evenodd" clip-rule="evenodd" d="M9.5132 1.64483C9.0944 1.55086 8.6617 1.54847 8.24345 1.63583C7.76541 1.73568 7.33357 1.98705 6.84306 2.27257L6.75952 2.32117C6.75229 2.32513 6.74511 2.32918 6.73798 2.33332L6.25032 2.61635L6.23948 2.62281L6.14329 2.67852C5.65643 2.96026 5.22659 3.20901 4.90413 3.57196C4.6207 3.89096 4.40911 4.26639 4.28257 4.67303C4.13755 5.13904 4.1465 5.63799 4.15672 6.20792L4.15868 6.31952L4.16582 6.74418C4.16638 6.7773 4.16714 6.80453 4.16765 6.82249L4.16788 6.83086L4.16821 6.84443C4.16526 7.0005 4.12454 7.1565 4.04845 7.2984C4.04269 7.30913 4.03583 7.32124 4.00063 7.38218L3.97015 7.43504C3.95822 7.45575 3.95606 7.45949 3.95244 7.46534C3.86792 7.60151 3.75234 7.71504 3.61519 7.79683C3.6078 7.80123 3.60166 7.80463 3.56641 7.82415L3.5305 7.84404L3.16894 8.04441L3.06631 8.10117C2.56731 8.37689 2.12886 8.61917 1.79723 8.97898C1.50666 9.29426 1.28737 9.66798 1.15358 10.0747C1.00027 10.5407 1.00197 11.0424 1.0039 11.6157L1.00424 11.7278L1.00552 12.2899L1.00569 12.3945C1.00644 12.9684 1.0071 13.4675 1.16125 13.9319C1.2949 14.3345 1.51235 14.7062 1.80226 15.0206C2.13199 15.3782 2.56651 15.6192 3.06176 15.894L3.1636 15.9505L3.52194 16.1498L3.55757 16.1697C3.59828 16.1923 3.60507 16.1961 3.61331 16.201C3.74936 16.283 3.86416 16.3964 3.94786 16.5316C3.95483 16.5429 3.96246 16.5559 4.00042 16.6222L4.02785 16.6701C4.04479 16.6996 4.04783 16.7049 4.05171 16.7123C4.1243 16.8497 4.16394 17.0039 4.16664 17.1625C4.16687 17.1762 4.1668 17.1924 4.16556 17.2658L4.15868 17.6733L4.15672 17.7845C4.14643 18.3569 4.13742 18.8578 4.28336 19.3253C4.41076 19.7334 4.62378 20.1094 4.90849 20.4284C5.23338 20.7925 5.66671 21.0415 6.1591 21.3244L6.26179 21.3835L6.7555 21.668L6.85721 21.7267C7.34789 22.0103 7.77921 22.2596 8.25602 22.3582C8.6733 22.4446 9.10457 22.4413 9.52113 22.3478C9.99601 22.2412 10.4234 21.9846 10.9087 21.6931L11.0101 21.6323L11.364 21.4204C11.4222 21.3855 11.4369 21.377 11.4486 21.3705C11.588 21.293 11.7428 21.2502 11.9015 21.2451C11.9139 21.2447 11.928 21.2446 11.9994 21.2446C12.071 21.2446 12.085 21.2447 12.0974 21.2451C12.2574 21.2503 12.4136 21.2936 12.5525 21.371C12.5597 21.375 12.5689 21.3804 12.6169 21.4092L12.9931 21.6351L13.0937 21.6956C13.5818 21.9894 14.0104 22.2475 14.4875 22.3545C14.9044 22.4481 15.3374 22.4521 15.7575 22.3643C16.2355 22.2645 16.6679 22.0128 17.1581 21.7275L17.2605 21.6679L17.7555 21.3806L17.8572 21.3217C18.3444 21.0398 18.7746 20.7908 19.0971 20.4278C19.3802 20.1092 19.5921 19.734 19.7188 19.3269C19.8627 18.8646 19.8537 18.3693 19.8436 17.8116L19.8416 17.6951L19.8342 17.2556C19.8332 17.1951 19.8332 17.1753 19.8335 17.1593C19.8358 16.999 19.8766 16.8416 19.9519 16.7011C19.9577 16.6904 19.9646 16.6781 19.9998 16.6173C20.0288 16.567 20.0398 16.549 20.049 16.5341C20.1335 16.398 20.2493 16.2842 20.3865 16.2024C20.3916 16.1994 20.3972 16.1962 20.4091 16.1895L20.4553 16.1638L20.4704 16.1556L20.832 15.9552L20.9357 15.8978C21.434 15.6225 21.8728 15.3801 22.2042 15.0205C22.4948 14.7052 22.7139 14.3318 22.8477 13.9251C22.9999 13.4625 22.9981 12.9638 22.9961 12.4014L22.9958 12.2838L22.9945 11.7096L22.9943 11.5922C22.9937 11.0264 22.9932 10.5292 22.84 10.0677C22.7059 9.66353 22.487 9.29217 22.1982 8.97897C21.8689 8.62186 21.4343 8.38079 20.9408 8.10709L20.8378 8.0499L20.8256 8.0432L20.4699 7.84532C20.4136 7.81403 20.3979 7.80489 20.3853 7.79737C20.2481 7.7152 20.1332 7.60214 20.0496 7.46757C20.0466 7.46262 20.045 7.45993 20.0373 7.44652L20.0007 7.3829C19.965 7.32117 19.958 7.30867 19.9522 7.29784C19.8766 7.15667 19.8359 6.99974 19.8335 6.84078C19.8332 6.82443 19.8331 6.80393 19.8342 6.74287L19.8413 6.31761L19.8434 6.19997C19.8536 5.63681 19.8626 5.13911 19.7176 4.67459C19.5901 4.26629 19.3769 3.89032 19.0923 3.57145C18.7669 3.20679 18.3335 2.95772 17.8393 2.67374L17.7395 2.61633L17.2457 2.33177L17.1433 2.27266C16.6531 1.98932 16.2216 1.73997 15.745 1.64132C15.3267 1.55475 14.8956 1.55889 14.48 1.65218C14.0056 1.75868 13.5792 2.01473 13.0952 2.30537L13.0134 2.35447L12.8429 2.45619L12.637 2.57945C12.5771 2.61534 12.5636 2.62319 12.5525 2.62939C12.414 2.7064 12.259 2.74925 12.0992 2.75438C12.0868 2.75478 12.0727 2.7549 12.0013 2.7549C11.9301 2.7549 11.9148 2.75478 11.9026 2.75439C11.7426 2.74924 11.5873 2.70619 11.4484 2.62877C11.4412 2.62476 11.436 2.62162 11.4055 2.60331L11.3643 2.57854L11.0082 2.36477L10.9064 2.30354C10.8575 2.27411 10.8092 2.24502 10.7614 2.21641C10.3326 1.95986 9.94221 1.74108 9.5132 1.64483ZM8.65237 3.59358C8.79305 3.5642 8.93702 3.56527 9.07535 3.59631C9.19532 3.62323 9.33024 3.69014 9.97878 4.07949L10.3349 4.29326L10.3576 4.30695C10.3954 4.32969 10.436 4.35417 10.4746 4.3757C10.8932 4.609 11.3604 4.73798 11.8383 4.75335C11.8868 4.75491 11.9362 4.75491 11.9902 4.7549H12.0123C12.0668 4.75491 12.1148 4.75491 12.1633 4.75335C12.6399 4.73806 13.1063 4.60981 13.5244 4.37738C13.5681 4.35304 13.6103 4.3278 13.6604 4.29776L13.999 4.09507C14.0066 4.09079 14.0141 4.0864 14.0216 4.08192C14.6657 3.69624 14.799 3.63034 14.9181 3.60361L14.9369 3.59959C15.0703 3.57228 15.2073 3.57241 15.3397 3.59981C15.4596 3.62464 15.5948 3.6887 16.2471 4.06464L16.741 4.3492C17.3944 4.72573 17.5182 4.81127 17.6001 4.90306C17.6951 5.00953 17.7661 5.13478 17.8085 5.27065C17.8447 5.38668 17.8542 5.53479 17.8416 6.28396L17.8345 6.70922L17.8337 6.87134C17.841 7.35056 17.9634 7.82064 18.1891 8.2421L18.2633 8.37369L18.2689 8.38327L18.2837 8.40901L18.3507 8.52287C18.6031 8.92911 18.9486 9.2681 19.3575 9.5131L19.4976 9.59308L19.8638 9.79681L20.7278 10.3347C20.824 10.439 20.8971 10.563 20.9419 10.6978C20.9804 10.814 20.9928 10.9626 20.9945 11.7141L20.9958 12.2883C20.9975 13.0369 20.9858 13.185 20.9479 13.3001C20.9032 13.436 20.8302 13.5602 20.7336 13.665C20.657 13.7482 20.5447 13.8254 20.0134 14.122L19.8625 14.2059L19.5143 14.3989L19.3622 14.4847C18.9498 14.7306 18.6027 15.0719 18.3497 15.4795C18.3256 15.5183 18.3032 15.5559 18.2679 15.617L18.2623 15.6266C18.2357 15.6728 18.2119 15.7139 18.1893 15.756C18.0552 16.0063 17.9578 16.2734 17.8991 16.549C17.8586 16.7394 17.8366 16.9339 17.8337 17.1297C17.833 17.1769 17.8333 17.2211 17.8345 17.2892L17.8419 17.7287C17.8543 18.4709 17.8449 18.6178 17.8092 18.7326C17.767 18.8682 17.6964 18.9931 17.6019 19.0995C17.5212 19.1904 17.3991 19.275 16.7516 19.6508L16.2566 19.9381C15.604 20.3169 15.4686 20.3815 15.3486 20.4066C15.2099 20.4356 15.0657 20.4345 14.9254 20.403C14.8053 20.3761 14.6707 20.3095 14.0225 19.9203L13.6391 19.6901C13.603 19.6685 13.5654 19.6458 13.5263 19.6241C13.1078 19.3908 12.6395 19.2615 12.1617 19.2461C12.113 19.2446 12.065 19.2446 12.0104 19.2446H11.9884C11.9339 19.2446 11.8859 19.2446 11.8374 19.2461C11.3597 19.2615 10.8938 19.3907 10.4767 19.6225C10.4323 19.6472 10.3902 19.6724 10.3365 19.7045L9.98271 19.9164C9.33677 20.3031 9.20254 20.3696 9.08305 20.3964C8.94472 20.4274 8.80098 20.4286 8.66137 20.3997C8.54135 20.3749 8.40625 20.3109 7.75407 19.9351L7.26036 19.6506C6.60612 19.2736 6.48252 19.1885 6.40077 19.0969C6.30591 18.9906 6.23498 18.8654 6.19249 18.7293C6.15577 18.6117 6.14568 18.4602 6.15839 17.7071L6.16532 17.2967C6.16639 17.2334 6.16726 17.1818 6.16635 17.1284C6.15835 16.659 6.04092 16.1961 5.82017 15.7782C5.79848 15.7371 5.77338 15.6934 5.75042 15.6535L5.73618 15.6287L5.73034 15.6185C5.70137 15.5679 5.67585 15.5233 5.6485 15.4791C5.39763 15.0737 5.0536 14.7337 4.64503 14.4877C4.60416 14.4631 4.5599 14.4385 4.51783 14.4152L4.49423 14.4021L4.13589 14.2027C3.47941 13.8375 3.35563 13.7549 3.27262 13.6649C3.17756 13.5618 3.10468 13.4382 3.05939 13.3018C3.02058 13.1848 3.00721 13.0336 3.00551 12.2854L3.00424 11.7233C3.00252 10.9682 3.01482 10.817 3.05341 10.6997C3.09814 10.5637 3.17131 10.4392 3.26788 10.3344C3.35134 10.2439 3.47673 10.1604 4.13837 9.79375L4.49993 9.59338L4.52208 9.58113C4.5607 9.5598 4.60183 9.53708 4.63948 9.51462C5.05194 9.26868 5.39881 8.92754 5.65175 8.52001C5.67428 8.4837 5.69771 8.44297 5.7185 8.4068L5.73246 8.38257L5.73788 8.37318C5.76474 8.32669 5.78842 8.28571 5.81105 8.24352C6.03654 7.82298 6.16092 7.35214 6.16806 6.87005C6.16864 6.83121 6.16768 6.7962 6.16713 6.77625L6.16682 6.76487C6.16633 6.74724 6.16589 6.73166 6.16554 6.71053L6.15839 6.28587C6.14576 5.53519 6.15573 5.38461 6.19223 5.26732C6.23458 5.13123 6.30517 5.00623 6.39927 4.90032C6.47997 4.80948 6.6018 4.72497 7.24886 4.34943L7.25972 4.34295L7.72284 4.07416C7.73013 4.07017 7.73737 4.06609 7.74456 4.06192C8.39736 3.68304 8.53231 3.61866 8.65237 3.59358Z" fill="current"/>
</svg>
