<svg width="24" height="24" viewBox="0 0 24 24" fill="none" xmlns="http://www.w3.org/2000/svg">
<path fill-rule="evenodd" clip-rule="evenodd" d="M7.10002 7C7.56329 4.71776 9.58104 3 12 3C14.419 3 16.4367 4.71776 16.9 7L17.8388 7C18.3659 6.99998 18.8205 6.99997 19.1949 7.03057C19.5902 7.06289 19.9831 7.13424 20.3614 7.32698C20.9248 7.61405 21.3851 8.07224 21.6732 8.63781C21.8659 9.016 21.9372 9.40906 21.9695 9.80396C22 10.1781 22 10.6323 22 11.1584V16.8421C22 17.3682 22 17.8221 21.9695 18.1962C21.9372 18.591 21.8659 18.9838 21.6732 19.3619C21.3854 19.9269 20.9254 20.3859 20.3614 20.6732C19.9833 20.8659 19.5905 20.9372 19.1957 20.9695C18.8217 21 18.3677 21 17.8416 21H6.15839C5.6323 21 5.17815 21 4.80397 20.9695C4.40906 20.9372 4.016 20.8659 3.63781 20.6732C3.07276 20.3853 2.61431 19.9258 2.32698 19.3619C2.13421 18.9835 2.06288 18.5904 2.03057 18.1951C1.99997 17.8206 1.99998 17.3659 2 16.8388V11.1617C1.99998 10.6345 1.99997 10.1796 2.03057 9.80498C2.06286 9.40962 2.13416 9.01624 2.32698 8.63781C2.6146 8.07332 3.07332 7.6146 3.63781 7.32698C4.01625 7.13416 4.40962 7.06286 4.80499 7.03057C5.17965 6.99997 5.6345 6.99998 6.16167 7L7.10002 7ZM9.17071 7H14.8293C14.4175 5.83481 13.3062 5 12 5C10.6938 5 9.58254 5.83481 9.17071 7ZM4.9678 9.02393C4.69595 9.04613 4.59517 9.08383 4.54579 9.10899C4.35763 9.20487 4.20487 9.35763 4.109 9.54579C4.08383 9.59517 4.04614 9.69595 4.02393 9.9678C4.00078 10.2513 4 10.6237 4 11.2002V16.8002C4 17.3768 4.00078 17.7489 4.02393 18.0322C4.04612 18.3037 4.08378 18.4044 4.109 18.4539C4.20516 18.6426 4.35819 18.7956 4.54579 18.8912C4.59501 18.9163 4.69554 18.9539 4.96686 18.9761C5.2498 18.9992 5.62146 19 6.19691 19H17.8031C18.3786 19 18.75 18.9992 19.0327 18.9761C19.3036 18.9539 19.4041 18.9164 19.4534 18.8912C19.6421 18.7951 19.7956 18.6415 19.8912 18.4539C19.9164 18.4046 19.954 18.3041 19.9761 18.0332C19.9992 17.7505 20 17.379 20 16.8036V11.1969C20 10.6215 19.9992 10.2498 19.9761 9.96686C19.9539 9.69554 19.9163 9.595 19.8912 9.54579C19.7959 9.35871 19.6427 9.20542 19.4534 9.10899C19.4039 9.08374 19.3032 9.0461 19.0319 9.02392C18.7488 9.00078 18.3768 9 17.8002 9H6.2002C5.62365 9 5.25126 9.00078 4.9678 9.02393Z" fill="current"/>
</svg>
