<svg width="24" height="24" viewBox="0 0 24 24" fill="none" xmlns="http://www.w3.org/2000/svg">
<path fill-rule="evenodd" clip-rule="evenodd" d="M10.968 2H13.032C13.4706 1.99999 13.8491 1.99998 14.1624 2.02135C14.4922 2.04386 14.8221 2.09336 15.1481 2.22836C15.8834 2.53297 16.4672 3.1174 16.7715 3.85218C16.9065 4.17801 16.9561 4.50778 16.9786 4.83763C16.9822 4.88994 16.9851 4.94407 16.9876 5H20C20.5523 5 21 5.44772 21 6C21 6.55229 20.5523 7 20 7H19V17.8416C19 18.3677 19 18.8217 18.9695 19.1958C18.9372 19.5906 18.8659 19.9835 18.6732 20.3616C18.3855 20.9263 17.9257 21.3857 17.3614 21.6732C16.9833 21.8659 16.5905 21.9372 16.1957 21.9695C15.8217 22 15.3677 22 14.8416 22H9.15839C8.6323 22 8.17815 22 7.80396 21.9695C7.40906 21.9372 7.016 21.8659 6.63781 21.6732C6.07245 21.3852 5.61416 20.9252 5.32698 20.3616C5.13421 19.9833 5.06288 19.5902 5.03057 19.1949C4.99997 18.8204 4.99998 18.3657 5 17.8386L5 7H4C3.44772 7 3 6.55229 3 6C3 5.44772 3.44772 5 4 5H7.01233C7.01481 4.94411 7.01778 4.89 7.02135 4.83772C7.04386 4.5079 7.09337 4.17808 7.22836 3.85218C7.53266 3.11754 8.11617 2.53303 8.85169 2.22836C9.17766 2.09334 9.50766 2.04385 9.8375 2.02135C10.1508 1.99998 10.5294 1.99999 10.968 2ZM9.01501 5C9.01556 4.9912 9.01612 4.9825 9.01671 4.97389C9.03226 4.74599 9.05887 4.65919 9.07612 4.61755C9.1778 4.37208 9.37247 4.17743 9.61706 4.07612C9.65864 4.0589 9.7455 4.03227 9.97362 4.01671C10.2107 4.00054 10.5204 4 11 4H13C13.4796 4 13.7893 4.00054 14.0262 4.01671C14.2542 4.03227 14.3411 4.05888 14.3827 4.07612C14.6274 4.17749 14.8222 4.37222 14.9238 4.61755C14.9411 4.65926 14.9677 4.74612 14.9832 4.97398C14.9838 4.98256 14.9844 4.99123 14.9849 5H9.01501ZM7 7V17.8C7 18.3766 7.00078 18.7487 7.02393 19.0319C7.04611 19.3034 7.08377 19.4041 7.10899 19.4536C7.20531 19.6426 7.3585 19.7958 7.54579 19.8912C7.595 19.9163 7.69554 19.9539 7.96686 19.9761C8.2498 19.9992 8.62146 20 9.19691 20H14.8031C15.3786 20 15.75 19.9992 16.0327 19.9761C16.3036 19.954 16.4041 19.9164 16.4534 19.8912C16.6418 19.7952 16.7955 19.6416 16.8912 19.4536C16.9163 19.4043 16.9539 19.3038 16.9761 19.0328C16.9992 18.75 17 18.3786 17 17.8031V7H7ZM10 9C10.5523 9 11 9.44772 11 10V17C11 17.5523 10.5523 18 10 18C9.44772 18 9 17.5523 9 17V10C9 9.44772 9.44772 9 10 9ZM14 9C14.5523 9 15 9.44772 15 10V17C15 17.5523 14.5523 18 14 18C13.4477 18 13 17.5523 13 17V10C13 9.44772 13.4477 9 14 9Z" fill="current"/>
</svg>
