<svg width="24" height="24" viewBox="0 0 24 24" fill="none" xmlns="http://www.w3.org/2000/svg">
<path fill-rule="evenodd" clip-rule="evenodd" d="M4 10V13.5858L3.7074 13.8784L3.68364 13.9021C3.58977 13.9957 3.47317 14.1119 3.37566 14.2477C3.19557 14.4985 3.07662 14.7869 3.02684 15.0902C2.99985 15.2547 3.00016 15.4193 3.0004 15.5504L3.00044 15.5857L3.00023 15.6695C2.99913 15.9613 2.99778 16.3202 3.10535 16.6391C3.30505 17.2312 3.77009 17.6956 4.36149 17.895C4.6798 18.0024 5.03734 18.001 5.32689 17.9999L5.41 17.9997H8C8 20.2089 9.79086 22 12 22C14.2091 22 16 20.2091 16 18L18.5905 17.9998L18.6736 18C18.9631 18.0011 19.3214 18.0024 19.6397 17.8951C20.2327 17.695 20.6957 17.2296 20.8948 16.6392C21.0024 16.3202 21.001 15.9613 20.9999 15.6695L20.9997 15.5857L20.9998 15.5525C21 15.4197 21.0002 15.2553 20.9731 15.0903C20.9237 14.7891 20.8062 14.5003 20.6249 14.2477C20.5277 14.1124 20.4104 13.9955 20.3178 13.9033L20.2929 13.8785L20 13.5856V10C20 5.58172 16.4183 1.99999 12 2C7.58173 2.00001 4 5.58173 4 10ZM12 4C8.6863 4.00001 6 6.6863 6 10V13.7224C6 14.166 5.82391 14.5903 5.51112 14.9031L5.12161 15.2926C5.05809 15.3562 5.02622 15.3882 5.00389 15.4121L5.00169 15.4144L5.00159 15.4174C5.00056 15.4503 5.00044 15.4953 5.00044 15.5857C5.00044 15.7898 5.00081 15.9013 5.0054 15.9823L5.00613 15.9942L5.01686 15.9948C5.097 15.9994 5.20742 15.9997 5.41 15.9997H9.00044L9.02366 16H14.978L15 15.9998H18.5905C18.793 15.9998 18.9037 15.9994 18.9841 15.9948L18.994 15.9942L18.9948 15.9824C18.9993 15.9014 18.9997 15.7898 18.9997 15.5857C18.9997 15.496 18.9996 15.4508 18.9985 15.4183L18.9984 15.4141L18.997 15.4126C18.9743 15.3885 18.9424 15.3563 18.8787 15.2927L18.4892 14.9031C18.176 14.5899 18 14.1654 18 13.7224V10C18 6.68628 15.3137 3.99999 12 4ZM10 18C10 19.1046 10.8954 20 12 20C13.1046 20 14 19.1046 14 18H10Z" fill="current"/>
</svg>
