<svg width="24" height="24" viewBox="0 0 24 24" fill="none" xmlns="http://www.w3.org/2000/svg">
<path fill-rule="evenodd" clip-rule="evenodd" d="M9.3186 14.4313C9.40823 14.4761 9.45256 14.4984 9.48412 14.5157L9.48597 14.519C9.50414 14.5521 9.52775 14.5989 9.57496 14.6933L12.1841 19.9115C12.4464 20.4363 12.6729 20.8892 12.8794 21.2249C13.0714 21.5369 13.3688 21.9646 13.8587 22.1679C14.4573 22.4163 15.1369 22.3583 15.6843 22.0163C16.1343 21.7352 16.3571 21.2643 16.495 20.9251C16.643 20.5613 16.7913 20.0791 16.9631 19.5206L21.0621 6.199L21.0677 6.18134L21.0804 6.13989C21.2135 5.70751 21.333 5.31917 21.4001 5.00018C21.467 4.68175 21.5251 4.25357 21.3667 3.82185C21.1641 3.27018 20.7294 2.83604 20.1784 2.63376C19.7467 2.47528 19.3185 2.53331 18.9998 2.60025C18.6801 2.66739 18.2909 2.78718 17.8574 2.92061L4.48287 7.03584C3.92271 7.20818 3.43931 7.3569 3.07463 7.50529C2.73533 7.64336 2.26467 7.86626 1.98362 8.31606C1.64108 8.86429 1.58437 9.54433 1.83237 10.142C2.03567 10.632 2.46338 10.9292 2.77534 11.1211C3.11037 11.3272 3.5623 11.5532 4.08593 11.8149L9.3186 14.4313ZM19.4109 4.55754C19.1926 4.60339 18.8931 4.69446 18.4057 4.84442L5.11113 8.93506C4.49652 9.12418 4.10042 9.24712 3.82844 9.35779C3.80653 9.36671 3.78657 9.37512 3.76842 9.38302C3.78498 9.39375 3.80323 9.40529 3.8233 9.41764C4.07343 9.57152 4.44394 9.75788 5.01914 10.0455L10.0333 12.5526L14.4468 8.13906C14.8373 7.74853 15.4705 7.74853 15.861 8.13906C16.2516 8.52958 16.2516 9.16275 15.861 9.55327L11.4477 13.9666L13.9548 18.9808C14.2423 19.5559 14.4288 19.9265 14.5828 20.1767C14.5951 20.1967 14.6066 20.2149 14.6173 20.2314C14.6251 20.2133 14.6335 20.1935 14.6423 20.1717C14.7529 19.8997 14.8758 19.5037 15.0649 18.8891L19.1555 5.59456L19.1611 5.57698C19.308 5.09951 19.3975 4.80451 19.4428 4.58879C19.4458 4.57473 19.4484 4.56167 19.4507 4.54958C19.4384 4.5519 19.4252 4.55454 19.4109 4.55754Z" fill="current"/>
</svg>
