<svg width="24" height="24" viewBox="0 0 24 24" fill="none" xmlns="http://www.w3.org/2000/svg">
<path fill-rule="evenodd" clip-rule="evenodd" d="M12 2C12.2652 2 12.5196 2.10536 12.7071 2.29289L15.7071 5.29289C16.0976 5.68342 16.0976 6.31658 15.7071 6.70711C15.3166 7.09763 14.6834 7.09763 14.2929 6.70711L13 5.41421V13C13 13.5523 12.5523 14 12 14C11.4477 14 11 13.5523 11 13V5.41421L9.70711 6.70711C9.31658 7.09763 8.68342 7.09763 8.2929 6.70711C7.90237 6.31658 7.90237 5.68342 8.2929 5.29289L11.2929 2.29289C11.4804 2.10536 11.7348 2 12 2ZM6.96824 9L7.00023 9C7.55252 9 8.00023 9.44772 8.00023 10C8.00023 10.5523 7.55252 11 7.00023 11C6.52061 11 6.21097 11.0005 5.97399 11.0167C5.74599 11.0323 5.65916 11.0589 5.61755 11.0761C5.37252 11.1776 5.17762 11.3725 5.07612 11.6175C5.05887 11.6592 5.03226 11.746 5.01671 11.9739C5.00054 12.2108 5 12.5204 5 13V17.8C5 18.3766 5.00078 18.7487 5.02393 19.0319C5.04612 19.3034 5.08377 19.4041 5.109 19.4536C5.20531 19.6426 5.3585 19.7958 5.54579 19.8912C5.595 19.9163 5.69554 19.9539 5.96686 19.9761C6.2498 19.9992 6.62146 20 7.19691 20H16.8036C17.379 20 17.7505 19.9992 18.0332 19.9761C18.3041 19.9539 18.4046 19.9164 18.4539 19.8912C18.6417 19.7955 18.7952 19.6421 18.8912 19.4536C18.9163 19.4043 18.9539 19.3038 18.9761 19.0328C18.9992 18.75 19 18.3786 19 17.8031V13C19 12.5204 18.9994 12.2109 18.9832 11.974C18.9677 11.7461 18.9411 11.6593 18.9238 11.6175C18.8222 11.3722 18.6274 11.1775 18.3827 11.0761C18.3411 11.0589 18.2542 11.0323 18.0262 11.0167C17.7893 11.0005 17.4796 11 17 11C16.4477 11 16 10.5523 16 10C16 9.44772 16.4477 9 17 9L17.032 9C17.4706 8.99999 17.8491 8.99998 18.1624 9.02135C18.4922 9.04385 18.8221 9.09336 19.1481 9.22836C19.8834 9.53297 20.4672 10.1174 20.7715 10.8522C20.9065 11.178 20.9561 11.5078 20.9786 11.8376C21 12.1512 21 12.5301 21 12.9694V17.8416C21 18.3677 21 18.8217 20.9695 19.1958C20.9372 19.5906 20.8659 19.9835 20.6732 20.3616C20.3858 20.9258 19.9267 21.3855 19.3619 21.6732C18.9838 21.8659 18.591 21.9372 18.1962 21.9695C17.8222 22 17.3682 22 16.8421 22H7.15839C6.6323 22 6.17815 22 5.80397 21.9695C5.40906 21.9372 5.016 21.8659 4.63781 21.6732C4.07245 21.3852 3.61416 20.9252 3.32698 20.3616C3.13422 19.9833 3.06288 19.5902 3.03057 19.1949C2.99997 18.8204 2.99998 18.3657 3 17.8386L3 12.968C2.99999 12.5294 2.99998 12.1509 3.02135 11.8377C3.04386 11.5079 3.09337 11.1781 3.22836 10.8522C3.53284 10.1171 4.1171 9.53284 4.85218 9.22836C5.17811 9.09336 5.50802 9.04385 5.83785 9.02135C6.15111 8.99998 6.52959 8.99999 6.96824 9Z" fill="current"/>
</svg>
