<svg width="62" height="20" viewBox="0 0 62 20" fill="none" xmlns="http://www.w3.org/2000/svg">
<path d="M1.49981 18.5V1.5C8.7502 1.5 10.1346 1.89585 11.8884 4.64732C12.4976 5.60307 13.5063 6.8852 16.1721 8.5736C18.6982 11.7865 18.4998 15.7645 18.4998 18.5H1.49981Z" fill="#787878"/>
<path d="M17.5002 4.99998C11.0002 6.49998 1.5049 -1.50004 1.50488 18.5005H15.0002L17.5002 4.99998Z" fill="#D8D8D8"/>
<path d="M18.5 7.50035C8.5 6.50034 2.5 12.0003 2.5 18.5001H18.4996L18.5 7.50035Z" fill="black"/>
<path d="M23.9531 15.5V4.1875H28.3906C30.9688 4.1875 32.4375 5.64062 32.4375 7.875C32.4375 9.42188 31.7266 10.5469 30.4375 11.0938L32.8438 15.5H30.25L28.0938 11.4844H26.2969V15.5H23.9531ZM26.2969 9.57812H27.9531C29.3438 9.57812 30.0156 9 30.0156 7.875C30.0156 6.73438 29.3438 6.10938 27.9531 6.10938H26.2969V9.57812ZM37.7188 15.6719C35.125 15.6719 33.5312 13.9844 33.5312 11.2969C33.5312 8.67188 35.1406 6.90625 37.625 6.90625C39.8594 6.90625 41.6094 8.3125 41.6094 11.2031V11.8594H35.8125C35.8125 13.1406 36.5781 13.9375 37.7656 13.9375C38.5469 13.9375 39.1094 13.5938 39.3438 13.0781H41.5469C41.2188 14.6406 39.8125 15.6719 37.7188 15.6719ZM35.8125 10.4062H39.4219C39.4219 9.375 38.7031 8.64062 37.6719 8.64062C36.6094 8.64062 35.8516 9.42969 35.8125 10.4062ZM43.0625 18.6875V7.01562H45.3438V8.4375H45.4375C45.75 7.75 46.4375 6.90625 47.8594 6.90625C49.7344 6.90625 51.2969 8.35938 51.2969 11.2656C51.2969 14.0938 49.7969 15.6406 47.8594 15.6406C46.4688 15.6406 45.7656 14.8438 45.4375 14.1406H45.375V18.6875H43.0625ZM45.3281 11.25C45.3281 12.7812 45.9844 13.7969 47.125 13.7969C48.3125 13.7969 48.9375 12.75 48.9375 11.25C48.9375 9.76562 48.3125 8.75 47.125 8.75C45.9688 8.75 45.3281 9.71875 45.3281 11.25ZM56.6094 15.6719C54.0469 15.6719 52.4531 13.9062 52.4531 11.2812C52.4531 8.65625 54.0469 6.90625 56.6094 6.90625C59.1719 6.90625 60.7812 8.65625 60.7812 11.2812C60.7812 13.9062 59.1719 15.6719 56.6094 15.6719ZM56.625 13.875C57.8125 13.875 58.4219 12.7656 58.4219 11.2812C58.4219 9.78125 57.8125 8.67188 56.625 8.67188C55.4219 8.67188 54.7969 9.78125 54.7969 11.2812C54.7969 12.7656 55.4219 13.875 56.625 13.875Z" fill="white"/>
</svg>
