<svg width="24" height="24" viewBox="0 0 24 24" fill="none" xmlns="http://www.w3.org/2000/svg">
<path fill-rule="evenodd" clip-rule="evenodd" d="M6.16168 5H17.8388C18.3659 4.99998 18.8205 4.99997 19.1949 5.03058C19.5902 5.06289 19.9831 5.13424 20.3614 5.32698C20.9248 5.61405 21.3851 6.07224 21.6732 6.63781C21.8659 7.016 21.9372 7.40906 21.9695 7.80397C22 8.17815 22 8.6323 22 9.15839V14.8416C22 15.3677 22 15.8217 21.9695 16.1957C21.9372 16.5905 21.8659 16.9833 21.6732 17.3614C21.3856 17.9259 20.9259 18.3856 20.3614 18.6732C19.9833 18.8659 19.5905 18.9372 19.1957 18.9695C18.8217 19 18.3677 19 17.8416 19L5.99924 19C5.51535 18.9996 5.09007 18.9971 4.73147 18.9631C4.36141 18.928 3.99345 18.8544 3.63781 18.6732C3.07224 18.3851 2.61405 17.9248 2.32698 17.3614C2.13424 16.9831 2.06289 16.5902 2.03058 16.1949C1.99997 15.8205 1.99998 15.3659 2 14.8388V9.16168C1.99998 8.63451 1.99997 8.17965 2.03057 7.80499C2.06286 7.40962 2.13416 7.01625 2.32698 6.63781C2.6146 6.07332 3.07332 5.6146 3.63781 5.32698C4.01625 5.13416 4.40962 5.06286 4.80499 5.03057C5.17965 4.99997 5.63451 4.99998 6.16168 5ZM4.9678 7.02393C4.69595 7.04614 4.59517 7.08383 4.54579 7.109C4.35763 7.20487 4.20487 7.35763 4.109 7.54579C4.08383 7.59517 4.04614 7.69595 4.02393 7.9678C4.00078 8.25126 4 8.62365 4 9.2002V14.8002C4 15.3768 4.00078 15.7488 4.02393 16.0319C4.04611 16.3032 4.08375 16.4039 4.109 16.4534C4.20542 16.6427 4.35871 16.7959 4.54579 16.8912C4.59169 16.9146 4.68369 16.9496 4.92028 16.972C5.00965 16.9805 5.10941 16.9864 5.22406 16.9906C5.46336 16.475 5.87007 16.0563 6.32401 15.7537C7.05268 15.268 8.0017 15 9 15C9.99832 15 10.9474 15.268 11.676 15.7537C12.1327 16.0582 12.5416 16.4801 12.7803 17H17.8031C18.3786 17 18.75 16.9992 19.0327 16.9761C19.3036 16.954 19.4041 16.9164 19.4534 16.8912C19.6416 16.7953 19.7953 16.6416 19.8912 16.4534C19.9164 16.4041 19.954 16.3036 19.9761 16.0327C19.9992 15.75 20 15.3786 20 14.8031V9.19691C20 8.62146 19.9992 8.2498 19.9761 7.96686C19.9539 7.69554 19.9163 7.59501 19.8912 7.54579C19.7959 7.35871 19.6427 7.20542 19.4534 7.109C19.4039 7.08375 19.3032 7.04611 19.0319 7.02393C18.7488 7.00078 18.3768 7 17.8002 7H6.2002C5.62365 7 5.25126 7.00078 4.9678 7.02393ZM9 10C8.44772 10 8 10.4477 8 11C8 11.5523 8.44772 12 9 12C9.55229 12 10 11.5523 10 11C10 10.4477 9.55229 10 9 10ZM6 11C6 9.34315 7.34315 8 9 8C10.6569 8 12 9.34315 12 11C12 12.6569 10.6569 14 9 14C7.34315 14 6 12.6569 6 11ZM14 11C14 10.4477 14.4477 10 15 10H18C18.5523 10 19 10.4477 19 11C19 11.5523 18.5523 12 18 12H15C14.4477 12 14 11.5523 14 11ZM13 14C13 13.4477 13.4477 13 14 13H18C18.5523 13 19 13.4477 19 14C19 14.5523 18.5523 15 18 15H14C13.4477 15 13 14.5523 13 14Z" fill="current"/>
</svg>
