<svg width="24" height="24" viewBox="0 0 24 24" fill="none" xmlns="http://www.w3.org/2000/svg">
<path fill-rule="evenodd" clip-rule="evenodd" d="M7.16168 3H16.8388C17.3659 2.99998 17.8205 2.99997 18.1949 3.03058C18.5902 3.06289 18.9831 3.13424 19.3614 3.32698C19.9248 3.61405 20.3851 4.07224 20.6732 4.63781C20.8659 5.016 20.9372 5.40906 20.9695 5.80397C21 6.17815 21 6.6323 21 7.15839L21 16.8416C21 17.3677 21 17.8216 20.9695 18.1957C20.9372 18.5905 20.8659 18.9833 20.6732 19.3614C20.3856 19.9259 19.9259 20.3856 19.3614 20.6732C18.9833 20.8659 18.5905 20.9372 18.1957 20.9695C17.8217 21 17.3677 21 16.8416 21L7.15843 21C6.63233 21 6.17817 21 5.80398 20.9695C5.40907 20.9372 5.016 20.8659 4.63781 20.6732C4.07224 20.3851 3.61405 19.9248 3.32698 19.3614C3.13424 18.9831 3.06289 18.5902 3.03058 18.1949C2.99997 17.8205 2.99998 17.3659 3 16.8388V7.16168C2.99998 6.63451 2.99997 6.17965 3.03057 5.80499C3.06286 5.40962 3.13416 5.01625 3.32698 4.63781C3.6146 4.07332 4.07332 3.6146 4.63781 3.32698C5.01625 3.13416 5.40962 3.06286 5.80499 3.03057C6.17965 2.99997 6.63451 2.99998 7.16168 3ZM5.9678 5.02393C5.69595 5.04614 5.59517 5.08383 5.54579 5.109C5.35763 5.20487 5.20487 5.35763 5.109 5.54579C5.08383 5.59517 5.04614 5.69595 5.02393 5.9678C5.00078 6.25126 5 6.62365 5 7.2002V16.8002C5 17.3768 5.00078 17.7488 5.02393 18.0319C5.04611 18.3032 5.08375 18.4039 5.109 18.4534C5.20542 18.6427 5.35871 18.7959 5.54579 18.8912C5.59501 18.9163 5.69555 18.9539 5.96687 18.9761C6.24982 18.9992 6.62149 19 7.19695 19L14 19L14 5H7.2002C6.62365 5 6.25126 5.00078 5.9678 5.02393ZM16 5L16 19H16.8031C17.3786 19 17.75 18.9992 18.0327 18.9761C18.3036 18.954 18.4041 18.9164 18.4534 18.8912C18.6416 18.7953 18.7953 18.6416 18.8912 18.4534C18.9164 18.4041 18.954 18.3036 18.9761 18.0327C18.9992 17.75 19 17.3785 19 16.8031L19 7.19691C19 6.62146 18.9992 6.2498 18.9761 5.96686C18.9539 5.69554 18.9163 5.59501 18.8912 5.54579C18.7959 5.35871 18.6427 5.20542 18.4534 5.109C18.4039 5.08375 18.3032 5.04611 18.0319 5.02393C17.7488 5.00078 17.3768 5 16.8002 5H16Z" fill="current"/>
</svg>
