<svg width="70" height="31" viewBox="0 0 70 31" fill="none" xmlns="http://www.w3.org/2000/svg">
<rect x="0.5" y="0.5" width="69" height="30" rx="15" fill="#072E05"/>
<rect x="0.5" y="0.5" width="69" height="30" rx="15" stroke="#1A5215"/>
<path d="M17.1328 21V9.6875H21.3828C23.9766 9.6875 25.3594 11.1406 25.3672 13.2969C25.3594 14.8359 24.6562 15.9766 23.3281 16.5156L25.7734 21H23.5078L21.2891 16.8594H19.1641V21H17.1328ZM19.1641 15.1562H21.0703C22.6016 15.1641 23.2891 14.5078 23.2891 13.2969C23.2891 12.0938 22.6016 11.3906 21.0703 11.3906H19.1641V15.1562ZM30.6641 21.1719C28.1094 21.1719 26.5391 19.4688 26.5391 16.8125C26.5391 14.1875 28.1328 12.4062 30.5547 12.4062C32.6328 12.4062 34.4297 13.7109 34.4297 16.6875V17.3125H28.5078C28.5391 18.7578 29.3906 19.6172 30.6797 19.6094C31.5547 19.6172 32.1406 19.2422 32.3984 18.7344H34.3516C33.9922 20.2031 32.6328 21.1719 30.6641 21.1719ZM28.5156 15.9531H32.5234C32.5156 14.7969 31.7344 13.9531 30.5859 13.9531C29.3906 13.9531 28.5859 14.875 28.5156 15.9531ZM35.9766 24.1875V12.5156H37.9297V13.9062H38.0547C38.3594 13.3047 38.9844 12.4062 40.4922 12.4062C42.4453 12.4062 43.9844 13.9375 43.9922 16.7656C43.9844 19.5547 42.4922 21.1484 40.4922 21.1562C39.0312 21.1484 38.3672 20.2812 38.0547 19.6562H37.9766V24.1875H35.9766ZM37.9297 16.75C37.9375 18.4062 38.6562 19.5156 39.9453 19.5156C41.2656 19.5156 41.9609 18.3516 41.9609 16.75C41.9609 15.1719 41.2812 14.0391 39.9453 14.0312C38.6406 14.0391 37.9375 15.1016 37.9297 16.75ZM49.2578 21.1719C46.7812 21.1719 45.1953 19.4141 45.1953 16.7969C45.1953 14.1562 46.7812 12.4062 49.2578 12.4062C51.7422 12.4062 53.3281 14.1562 53.3203 16.7969C53.3281 19.4141 51.7422 21.1719 49.2578 21.1719ZM47.2109 16.7812C47.2109 18.3359 47.8906 19.5781 49.2734 19.5781C50.6328 19.5781 51.3125 18.3359 51.3047 16.7812C51.3125 15.2266 50.6328 13.9766 49.2734 13.9844C47.8906 13.9766 47.2109 15.2266 47.2109 16.7812Z" fill="#42E224"/>
</svg>
