<svg width="645" height="69" viewBox="0 0 645 69" fill="none" xmlns="http://www.w3.org/2000/svg">
<path d="M10.6641 1.91211V9.19922H9.36523V6.0957H7.08203V5.0293H9.36523V1.91211H10.6641ZM0.451172 8.0918C2.35156 7.42871 3.52051 5.77441 3.51367 4.08594V3.8125H0.861328V2.75977H7.46484V3.8125H4.83984V4.07227C4.83301 5.62402 5.94043 7.13477 7.79297 7.76367L7.12305 8.78906C5.74902 8.31738 4.7373 7.33301 4.2041 6.12305C3.6709 7.49023 2.59766 8.59082 1.13477 9.13086L0.451172 8.0918ZM2.41992 11.8516C2.41309 10.3955 3.98535 9.54785 6.5625 9.54102C9.12598 9.54785 10.6982 10.3955 10.7051 11.8516C10.6982 13.3076 9.12598 14.1553 6.5625 14.1621C3.98535 14.1553 2.41309 13.3076 2.41992 11.8516ZM3.70508 11.8516C3.69824 12.6787 4.76465 13.1504 6.5625 13.1367C8.34668 13.1504 9.41309 12.6787 9.41992 11.8516C9.41309 11.0176 8.34668 10.5459 6.5625 10.5527C4.76465 10.5459 3.69824 11.0176 3.70508 11.8516ZM23.7617 11.5645V12.6445H12.5508V11.5645H17.4863V9.04883H13.8359V2.74609H15.1348V4.85156H21.1504V2.74609H22.4355V9.04883H18.7715V11.5645H23.7617ZM15.1348 7.99609H21.1504V5.9043H15.1348V7.99609Z" fill="#D1D1D1"/>
<rect y="21" width="280" height="48" rx="8" fill="#333333"/>
<path d="M22.582 39.4414C22.582 41.7461 24.2812 43.8555 26.8594 44.7539L26.0781 45.9453C24.0957 45.2422 22.582 43.8164 21.8398 42.0195C21.0977 43.9922 19.5059 45.5254 17.4648 46.2773L16.6445 45.0859C19.2422 44.168 21.0586 41.9219 21.0781 39.4414V38.6992H17.1133V37.4492H26.4883V38.6992H22.582V39.4414ZM30.2773 36.2188V40.8086H32.8945V42.1172H30.2773V46.6875H28.7539V36.2188H30.2773ZM30.2773 47.6055V53.582H28.7539V48.8555H18.9102V47.6055H30.2773ZM39.9648 38.9531C39.9453 41.4336 41.7031 43.6211 44.2617 44.4805L43.4023 45.6719C41.4883 44.9492 39.9844 43.543 39.2422 41.707C38.4902 43.7871 36.8984 45.4082 34.8086 46.1992L33.9688 44.9492C36.6445 44.0117 38.4219 41.707 38.4414 39.0117V37.2148H39.9648V38.9531ZM48.3828 36.2188V46.5117H46.8398V41.2188H42.9727V39.9492H46.8398V36.2188H48.3828ZM42.6211 47.0195C46.2344 47.0195 48.4414 48.2109 48.4414 50.3008C48.4414 52.3711 46.2344 53.543 42.6211 53.543C39.0078 53.543 36.8008 52.3711 36.8008 50.3008C36.8008 48.2109 39.0078 47.0195 42.6211 47.0195ZM42.6211 48.2305C39.9648 48.2305 38.3047 49.0117 38.3242 50.3008C38.3047 51.5508 39.9648 52.3125 42.6211 52.3125C45.2773 52.3125 46.918 51.5508 46.918 50.3008C46.918 49.0117 45.2773 48.2305 42.6211 48.2305ZM64.7109 36.2188V43.3867H67.6211V44.6562H64.7109V53.582H63.1875V36.2188H64.7109ZM61.5078 39.0117V40.2812H51.1758V39.0117H55.6484V36.4336H57.1719V39.0117H61.5078ZM56.4297 41.7266C58.8906 41.7266 60.668 43.3672 60.6875 45.7109C60.668 48.0547 58.8906 49.6953 56.4297 49.6953C53.9492 49.6953 52.1523 48.0547 52.1719 45.7109C52.1523 43.3672 53.9492 41.7266 56.4297 41.7266ZM56.4297 43.0156C54.8086 43.0156 53.6172 44.1484 53.6367 45.7109C53.6172 47.293 54.8086 48.4062 56.4297 48.3867C58.0312 48.4062 59.2031 47.293 59.2227 45.7109C59.2031 44.1484 58.0312 43.0156 56.4297 43.0156ZM82.4844 37.9766V39.7148C82.4648 41.8438 82.4648 44.2266 81.8398 47.7227L80.2773 47.5469C80.9414 44.2266 80.9414 41.7852 80.9414 39.7148V39.2461H70.2383V37.9766H82.4844ZM84.3789 49.8516V51.1211H68.5586V49.8516H74.7695V43.6406H76.2734V49.8516H84.3789ZM96.7422 47.8789C96.7422 49.4121 97.5625 51.043 99.2227 51.9805C100.863 50.9551 101.742 49.2266 101.742 47.8789V46.9219H103.246V47.8789C103.246 49.6562 104.555 51.4531 106.781 52.2148L106.02 53.3477C104.281 52.7324 103.061 51.5215 102.465 50.0664C101.928 51.4727 100.863 52.8008 99.2617 53.4844C97.5723 52.8398 96.498 51.5605 95.9805 50.1055C95.3652 51.5117 94.1641 52.7227 92.5039 53.3477L91.7227 52.2148C93.9102 51.3945 95.2383 49.5391 95.2578 47.8789V46.9219H96.7422V47.8789ZM105.199 36.2383V46.1602H103.676V36.2383H105.199ZM95.8242 37.2539C98.4609 37.2539 100.375 38.8945 100.375 41.3164C100.375 43.6992 98.4609 45.3398 95.8242 45.3398C93.1875 45.3398 91.2734 43.6992 91.2734 41.3164C91.2734 38.8945 93.1875 37.2539 95.8242 37.2539ZM95.8242 38.5625C94.0469 38.543 92.7578 39.6953 92.7773 41.3164C92.7578 42.918 94.0469 44.0508 95.8242 44.0703C97.582 44.0508 98.8711 42.918 98.8711 41.3164C98.8711 39.6953 97.582 38.543 95.8242 38.5625ZM122.191 41.4922V42.7227H110.297V36.8633H111.82V41.4922H122.191ZM124.027 45.0859V46.3359H108.129V45.0859H124.027ZM122.289 51.8828V53.1523H110.199V48.1133H111.723V51.8828H122.289ZM144.848 36.2188V46.5703H143.305V42.0195H139.809V40.75H143.305V36.2188H144.848ZM139.086 47.1172C142.699 47.1172 144.906 48.2891 144.906 50.3398C144.906 52.3906 142.699 53.5625 139.086 53.582C135.473 53.5625 133.266 52.3906 133.266 50.3398C133.266 48.2891 135.473 47.1172 139.086 47.1172ZM139.086 48.3086C136.43 48.3086 134.77 49.0703 134.789 50.3398C134.77 51.5898 136.43 52.3516 139.086 52.3516C141.742 52.3516 143.383 51.5898 143.383 50.3398C143.383 49.0703 141.742 48.3086 139.086 48.3086ZM136.488 39.4023C136.488 41.668 138.227 43.8164 140.766 44.6953L139.965 45.9258C138.012 45.2227 136.498 43.7676 135.766 41.9609C135.004 44.002 133.393 45.6328 131.332 46.4141L130.531 45.1836C133.109 44.2461 134.945 41.9023 134.945 39.4219V38.7773H131.02V37.4883H140.375V38.7773H136.488V39.4023ZM163.637 50.0859V51.3555H147.738V50.0859H154.887V46.3359H149.613V37.4492H151.156V40.5938H160.18V37.4492H161.684V46.3359H156.391V50.0859H163.637ZM151.156 45.0859H160.18V41.8438H151.156V45.0859ZM178.461 36.2188V43.2891H181.273V44.5781H178.461V53.582H176.938V36.2188H178.461ZM173.969 38.0938C173.969 43.0156 171.664 47.4883 166 50.2812L165.141 49.0703C169.633 46.834 172.074 43.4941 172.426 39.3828H165.941V38.0938H173.969ZM185.395 35.8672V53.9922H183.949V35.8672H185.395Z" fill="#D1D1D1"/>
<rect x="292" y="43" width="353" height="4" rx="2" fill="#31CA18"/>
</svg>
