<svg width="598" height="500" viewBox="0 0 598 500" fill="none" xmlns="http://www.w3.org/2000/svg">
<g filter="url(#filter0_d_8764_1118)">
<rect x="40" y="40" width="518" height="420" rx="16" fill="#333333"/>
<rect x="40.5" y="40.5" width="517" height="419" rx="15.5" stroke="#454545"/>
<path d="M82.0234 81.3672V83.7344H75.8359V88.2812H84.1562V90.7188H64.6328V88.2812H72.8594V83.7344H66.9297V73.3281H81.8594V75.7188H69.9297V81.3672H82.0234ZM93.4375 76.6562C93.4375 80.6641 95.0547 84.5547 98.6172 86.1016L96.7891 88.4922C94.4219 87.332 92.8398 85.2109 91.9609 82.5859C91.0234 85.375 89.3828 87.6602 86.9453 88.8672L85.0703 86.4297C88.7266 84.7891 90.3906 80.6641 90.4141 76.6562V73.4688H93.4375V76.6562ZM103.375 71.8281V93.2031H100.422V80.9453H96.2266V78.5312H100.422V71.8281H103.375ZM118.07 73.375V74.7109C118.07 76.1875 118.07 78.3203 117.578 80.9688L114.648 80.6875C115.023 78.6367 115.117 77.0898 115.141 75.8125H107.102V73.375H118.07ZM112.773 78.2969V82.375C114.895 82.293 117.074 82.1289 119.078 81.8359L119.242 83.9922C114.812 84.8125 109.797 84.8828 106.094 84.9062L105.836 82.5156C107.031 82.5156 108.379 82.5156 109.797 82.4688V78.2969H112.773ZM123.297 71.8281V78.3203H125.875V80.8281H123.297V87.7891H120.227V71.8281H123.297ZM123.953 90.3906V92.7812H108.977V86.3594H111.977V90.3906H123.953Z" fill="white"/>
<path d="M69.5312 115.641C69.5312 118 71.25 120.391 73.2969 121.281L72.6094 122.25C70.9844 121.508 69.5781 119.906 68.9375 117.984C68.2812 120.023 66.8828 121.797 65.2969 122.594L64.5625 121.625C66.5469 120.672 68.2812 118.047 68.2969 115.641V113.828H65.0156V112.812H72.8438V113.828H69.5312V115.641ZM76.0156 111.375V125.266H74.7812V111.375H76.0156ZM89.4375 112.125V113.156C89.4375 114.234 89.4375 115.5 89.0781 117.234H91.1094V118.25H78.3906V117.234H87.8438C88.2188 115.492 88.2188 114.234 88.2188 113.156V113.141H80V112.125H89.4375ZM89.5 120.172V125.078H79.9531V120.172H89.5ZM81.1719 121.141V124.078H88.2812V121.141H81.1719ZM103.219 111.375V117.109H105.328V118.141H103.219V125.266H101.984V111.375H103.219ZM96.4375 112.891C96.4219 116.203 95.6719 119.453 93.1562 122.125L92.1719 121.422C94.2734 119.273 95.1172 116.688 95.2812 113.922H92.6094V112.891H96.4375ZM100.25 112.891C100.234 116.188 99.75 120.016 97.1562 123.047L96.1562 122.359C98.3281 119.906 98.9844 116.82 99.0938 113.922H96.875V112.891H100.25ZM111.016 115.641C111.016 118 112.734 120.391 114.781 121.281L114.094 122.25C112.469 121.508 111.062 119.906 110.422 117.984C109.766 120.023 108.367 121.797 106.781 122.594L106.047 121.625C108.031 120.672 109.766 118.047 109.781 115.641V113.828H106.5V112.812H114.328V113.828H111.016V115.641ZM117.5 111.375V125.266H116.266V111.375H117.5ZM130.172 120.156C133.156 120.156 135.047 121.094 135.047 122.703C135.047 124.297 133.156 125.234 130.172 125.234C127.203 125.234 125.312 124.297 125.312 122.703C125.312 121.094 127.203 120.156 130.172 120.156ZM130.172 121.094C127.953 121.109 126.516 121.719 126.531 122.703C126.516 123.672 127.953 124.266 130.172 124.266C132.391 124.266 133.812 123.672 133.828 122.703C133.812 121.719 132.391 121.109 130.172 121.094ZM134.938 112.094V113.266C134.938 114.391 134.938 115.516 134.547 116.953L133.344 116.812C133.719 115.375 133.719 114.359 133.719 113.266V113.094H125.406V112.094H134.938ZM136.547 117.859V118.859H123.906V117.859H129.141V115.172H130.344V117.859H136.547ZM149.578 111.375V125.266H148.375V118H146.453V124.578H145.281V111.75H146.453V116.984H148.375V111.375H149.578ZM143.703 113.188C143.688 116.719 142.453 120.062 138.453 122.281L137.734 121.422C140.961 119.625 142.297 117.078 142.5 114.203H138.266V113.188H143.703ZM159.625 115.938V116.938H156.812V118.875C158.109 118.82 159.406 118.727 160.609 118.594L160.703 119.5C157.719 119.906 154.406 120 151.797 120L151.609 119C152.828 118.992 154.195 118.977 155.594 118.922V116.938H152.875V112.281H159.516V113.297H154.109V115.938H159.625ZM163 111.391V121.781H161.766V111.391H163ZM163.453 123.938V124.969H153.984V121.062H155.203V123.938H163.453ZM174.812 112.922V117.719H171.047V120.812C172.648 120.805 174.164 120.75 176.016 120.422L176.109 121.438C174.125 121.797 172.547 121.828 170.781 121.844H169.859V116.703H173.641V113.938H169.828V112.922H174.812ZM181.266 111.375V125.266H180.094V111.375H181.266ZM178.422 111.719V124.531H177.266V117.391H175.484V116.391H177.266V111.719H178.422ZM190.234 113.344C190.219 115.203 192.703 116.781 195.125 117.141L194.672 118.109C192.5 117.742 190.391 116.586 189.547 114.906C188.703 116.586 186.586 117.742 184.453 118.109L183.969 117.141C186.375 116.781 188.859 115.203 188.859 113.344V113.25H184.406V112.25H194.672V113.25H190.234V113.344ZM195.875 119.297V120.312H190.125V125.266H188.922V120.312H183.219V119.297H195.875ZM202.875 113V116.625H204.984V111.672H206.156V124.562H204.984V117.641H202.875V121.531H197.562V113H202.875ZM198.719 113.984V120.547H201.719V113.984H198.719ZM208.953 111.375V125.266H207.766V111.375H208.953ZM223.531 118.188V119.188H217.797V120.828H221.969V125.266H220.734V121.828H212.281V120.828H216.594V119.188H210.875V118.188H223.531ZM213.781 111.703V113.312H220.656V111.703H221.875V116.891H212.562V111.703H213.781ZM213.781 115.906H220.656V114.25H213.781V115.906ZM237.375 117.219V118.203H224.703V117.219H237.375ZM235.859 115.078V116.078H226.391V111.859H235.719V112.844H227.625V115.078H235.859ZM235.734 119.453V122.672H227.484V124.109H236.156V125.109H226.266V121.75H234.531V120.406H226.234V119.453H235.734ZM244.859 111.625C247.953 111.625 249.766 112.469 249.766 114.016C249.766 115.594 247.953 116.438 244.859 116.453C241.766 116.438 239.938 115.594 239.938 114.016C239.938 112.469 241.766 111.625 244.859 111.625ZM244.859 112.547C242.547 112.547 241.203 113.109 241.219 114.016C241.203 114.984 242.547 115.516 244.859 115.516C247.156 115.516 248.516 114.984 248.516 114.016C248.516 113.109 247.156 112.547 244.859 112.547ZM251.188 117.391V118.391H238.531V117.391H251.188ZM249.562 119.594V122.703H241.312V124.141H249.984V125.109H240.094V121.797H248.359V120.531H240.062V119.594H249.562ZM267.828 111.375V118.781H266.625V111.375H267.828ZM262.75 119.375V122.578H259.344V124.125C261.141 124.117 262.289 124.078 263.719 123.828L263.844 124.766C262.266 125.062 261.031 125.078 259 125.078H258.156V121.672H261.562V120.328H258.141V119.375H262.75ZM267.828 119.375V125.156H266.625V120.391H263.375V119.375H267.828ZM260.312 112.016C262.391 112.016 263.906 113.297 263.906 115.125C263.906 116.969 262.391 118.25 260.312 118.25C258.203 118.25 256.703 116.969 256.703 115.125C256.703 113.297 258.203 112.016 260.312 112.016ZM260.312 113.047C258.922 113.031 257.891 113.906 257.906 115.125C257.891 116.359 258.922 117.234 260.312 117.234C261.688 117.234 262.719 116.359 262.719 115.125C262.719 113.906 261.688 113.031 260.312 113.047ZM273.938 112.453C275.828 112.469 277.188 114.086 277.391 116.688H280.5V111.375H281.719V125.297H280.5V117.703H277.406C277.258 120.422 275.875 122.125 273.938 122.125C271.891 122.125 270.453 120.25 270.453 117.297C270.453 114.344 271.891 112.469 273.938 112.453ZM273.938 113.547C272.562 113.562 271.625 115.031 271.625 117.297C271.625 119.562 272.562 121.031 273.938 121.031C275.297 121.031 276.25 119.562 276.25 117.297C276.25 115.031 275.297 113.562 273.938 113.547ZM296.75 122.469V123.484H284.031V122.469H289.75V119.469H285.531V112.359H286.766V114.875H293.984V112.359H295.188V119.469H290.953V122.469H296.75ZM286.766 118.469H293.984V115.875H286.766V118.469ZM301.984 115.328C301.984 117.531 303.062 119.922 304.906 121.016L304.203 121.969C302.867 121.156 301.906 119.672 301.422 117.984C300.906 119.828 299.875 121.414 298.484 122.266L297.703 121.344C299.625 120.219 300.797 117.75 300.797 115.375V112.688H301.984V115.328ZM309.766 111.375V125.266H308.578V111.375H309.766ZM306.891 111.672V124.562H305.734V117.406H303.375V116.359H305.734V111.672H306.891ZM324.406 122.453V123.484H311.688V122.453H314.844V118.703C313.656 118.086 312.938 117.086 312.938 115.828C312.938 113.672 315.047 112.266 318.016 112.25C320.984 112.266 323.094 113.672 323.094 115.828C323.094 117.062 322.398 118.055 321.25 118.672V122.453H324.406ZM318.016 113.266C315.734 113.25 314.125 114.281 314.125 115.828C314.125 117.375 315.734 118.422 318.016 118.422C320.281 118.422 321.906 117.375 321.906 115.828C321.906 114.281 320.281 113.25 318.016 113.266ZM316.047 122.453H320.016V119.141C319.414 119.305 318.742 119.391 318.016 119.391C317.305 119.391 316.641 119.312 316.047 119.156V122.453Z" fill="#B0B0B0"/>
<rect x="64.5" y="156.5" width="469" height="63" rx="11.5" fill="#222222"/>
<rect x="64.5" y="156.5" width="469" height="63" rx="11.5" stroke="#454545"/>
<path d="M89 193.5V192.25L92.9219 188.297C94.1641 187.008 94.7812 186.289 94.7812 185.297C94.7812 184.18 93.875 183.469 92.6875 183.469C91.4297 183.469 90.6328 184.266 90.625 185.469H89C88.9844 183.398 90.5625 182.031 92.7188 182.031C94.8984 182.031 96.4062 183.414 96.4219 185.25C96.4062 186.516 95.8125 187.523 93.6875 189.609L91.3906 191.938V192.031H96.6094V193.5H89ZM102.453 193.656C99.8359 193.656 98.2969 191.547 98.2969 187.844C98.2969 184.164 99.8516 182.031 102.453 182.031C105.047 182.031 106.602 184.164 106.609 187.844C106.602 191.547 105.07 193.656 102.453 193.656ZM100.016 187.844C100.008 190.664 100.922 192.172 102.453 192.172C103.977 192.172 104.891 190.664 104.891 187.844C104.891 185.031 103.969 183.492 102.453 183.484C100.93 183.492 100.016 185.031 100.016 187.844ZM108.391 193.5V192.25L112.312 188.297C113.555 187.008 114.172 186.289 114.172 185.297C114.172 184.18 113.266 183.469 112.078 183.469C110.82 183.469 110.023 184.266 110.016 185.469H108.391C108.375 183.398 109.953 182.031 112.109 182.031C114.289 182.031 115.797 183.414 115.812 185.25C115.797 186.516 115.203 187.523 113.078 189.609L110.781 191.938V192.031H116V193.5H108.391ZM117.406 191.297V189.906L122.406 182.188H124.531V189.844H126.078V191.297H124.531V193.5H122.906V191.297H117.406ZM119.219 189.844H122.906V184.234H122.781L119.219 189.75V189.844Z" fill="white"/>
<path d="M141.062 193.5L141.047 192.469L144.906 188.406C146.242 186.984 146.883 186.219 146.891 185.172C146.883 184.008 145.914 183.258 144.641 183.25C143.289 183.258 142.445 184.109 142.438 185.375H141.109C141.094 183.375 142.641 182.031 144.688 182.031C146.742 182.031 148.195 183.414 148.203 185.172C148.195 186.438 147.609 187.422 145.609 189.484L143.016 192.156V192.25H148.406V193.5H141.062ZM158.266 182.375V183.375H149.984V182.375H153.516V180.812H154.734V182.375H158.266ZM150.781 186.609C150.773 185.078 152.117 184.109 154.125 184.094C156.117 184.109 157.453 185.078 157.469 186.609C157.453 188.117 156.117 189.102 154.125 189.109C152.117 189.102 150.773 188.117 150.781 186.609ZM151.719 191.328V190.328H160.812V194.766H159.594V191.328H151.719ZM151.953 186.609C151.945 187.531 152.812 188.133 154.125 188.125C155.422 188.133 156.297 187.531 156.312 186.609C156.297 185.664 155.422 185.055 154.125 185.047C152.812 185.055 151.945 185.664 151.953 186.609ZM159.594 189.562V180.875H160.812V184.734H162.906V185.766H160.812V189.562H159.594ZM175.297 180.891V191.172H174.062V186.359H170.062V185.375H174.062V183.703H170.062V182.719H174.062V180.891H175.297ZM164.609 189.109V181.891H165.844V188.062C167.758 188.055 169.602 187.945 171.719 187.562L171.844 188.578C169.586 189 167.695 189.094 165.656 189.109H164.609ZM166.344 194.469V190.297H167.578V193.438H175.672V194.469H166.344ZM185.891 182.031C187.836 182.055 190 183.227 190 187.391C190 191.414 188.352 193.656 185.703 193.656C183.711 193.656 182.312 192.438 182.031 190.641H183.422C183.672 191.656 184.445 192.406 185.703 192.406C187.547 192.406 188.672 190.812 188.688 188.062H188.531C187.883 189 186.844 189.562 185.641 189.562C183.617 189.562 181.938 188.008 181.938 185.828C181.938 183.719 183.484 182.008 185.891 182.031ZM183.312 185.812C183.305 187.211 184.367 188.328 185.844 188.328C187.32 188.328 188.469 187.109 188.469 185.781C188.469 184.484 187.383 183.266 185.891 183.266C184.414 183.266 183.297 184.414 183.312 185.812ZM202.922 180.875V194.766H201.688V180.875H202.922ZM191.609 191.156C195.367 189.375 197.289 186.711 197.562 183.391H192.25V182.391H198.812C198.797 186.383 196.938 189.922 192.281 192.156L191.609 191.156Z" fill="#888888"/>
<rect x="64.5" y="228.5" width="469" height="63" rx="11.5" fill="#222222"/>
<rect x="64.5" y="228.5" width="469" height="63" rx="11.5" stroke="#454545"/>
<path d="M89 265.5V264.25L92.9219 260.297C94.1641 259.008 94.7812 258.289 94.7812 257.297C94.7812 256.18 93.875 255.469 92.6875 255.469C91.4297 255.469 90.6328 256.266 90.625 257.469H89C88.9844 255.398 90.5625 254.031 92.7188 254.031C94.8984 254.031 96.4062 255.414 96.4219 257.25C96.4062 258.516 95.8125 259.523 93.6875 261.609L91.3906 263.938V264.031H96.6094V265.5H89ZM102.453 265.656C99.8359 265.656 98.2969 263.547 98.2969 259.844C98.2969 256.164 99.8516 254.031 102.453 254.031C105.047 254.031 106.602 256.164 106.609 259.844C106.602 263.547 105.07 265.656 102.453 265.656ZM100.016 259.844C100.008 262.664 100.922 264.172 102.453 264.172C103.977 264.172 104.891 262.664 104.891 259.844C104.891 257.031 103.969 255.492 102.453 255.484C100.93 255.492 100.016 257.031 100.016 259.844ZM108.391 265.5V264.25L112.312 260.297C113.555 259.008 114.172 258.289 114.172 257.297C114.172 256.18 113.266 255.469 112.078 255.469C110.82 255.469 110.023 256.266 110.016 257.469H108.391C108.375 255.398 109.953 254.031 112.109 254.031C114.289 254.031 115.797 255.414 115.812 257.25C115.797 258.516 115.203 259.523 113.078 261.609L110.781 263.938V264.031H116V265.5H108.391ZM117.406 263.297V261.906L122.406 254.188H124.531V261.844H126.078V263.297H124.531V265.5H122.906V263.297H117.406ZM119.219 261.844H122.906V256.234H122.781L119.219 261.75V261.844Z" fill="white"/>
<path d="M145.062 254.188V265.5H143.641V255.656H143.578L140.828 257.484V256.062L143.641 254.188H145.062ZM155.891 254.375V255.375H147.609V254.375H151.141V252.812H152.359V254.375H155.891ZM148.406 258.609C148.398 257.078 149.742 256.109 151.75 256.094C153.742 256.109 155.078 257.078 155.094 258.609C155.078 260.117 153.742 261.102 151.75 261.109C149.742 261.102 148.398 260.117 148.406 258.609ZM149.344 263.328V262.328H158.438V266.766H157.219V263.328H149.344ZM149.578 258.609C149.57 259.531 150.438 260.133 151.75 260.125C153.047 260.133 153.922 259.531 153.938 258.609C153.922 257.664 153.047 257.055 151.75 257.047C150.438 257.055 149.57 257.664 149.578 258.609ZM157.219 261.562V252.875H158.438V256.734H160.531V257.766H158.438V261.562H157.219ZM172.922 252.891V263.172H171.688V258.359H167.688V257.375H171.688V255.703H167.688V254.719H171.688V252.891H172.922ZM162.234 261.109V253.891H163.469V260.062C165.383 260.055 167.227 259.945 169.344 259.562L169.469 260.578C167.211 261 165.32 261.094 163.281 261.109H162.234ZM163.969 266.469V262.297H165.203V265.438H173.297V266.469H163.969ZM183.75 254.188V265.5H182.328V255.656H182.266L179.516 257.484V256.062L182.328 254.188H183.75ZM190.469 265.656C187.961 265.656 186.508 263.547 186.516 259.844C186.508 256.172 187.977 254.031 190.469 254.031C192.953 254.031 194.422 256.172 194.422 259.844C194.422 263.547 192.977 265.656 190.469 265.656ZM187.875 259.844C187.883 262.773 188.828 264.406 190.469 264.406C192.102 264.406 193.055 262.773 193.047 259.844C193.055 256.914 192.094 255.258 190.469 255.25C188.844 255.258 187.883 256.914 187.875 259.844ZM207.281 252.875V266.766H206.047V252.875H207.281ZM195.969 263.156C199.727 261.375 201.648 258.711 201.922 255.391H196.609V254.391H203.172C203.156 258.383 201.297 261.922 196.641 264.156L195.969 263.156Z" fill="#888888"/>
<rect x="64.5" y="300.5" width="469" height="63" rx="11.5" fill="#222222"/>
<rect x="64.5" y="300.5" width="469" height="63" rx="11.5" stroke="#454545"/>
<path d="M89 337.5V336.25L92.9219 332.297C94.1641 331.008 94.7812 330.289 94.7812 329.297C94.7812 328.18 93.875 327.469 92.6875 327.469C91.4297 327.469 90.6328 328.266 90.625 329.469H89C88.9844 327.398 90.5625 326.031 92.7188 326.031C94.8984 326.031 96.4062 327.414 96.4219 329.25C96.4062 330.516 95.8125 331.523 93.6875 333.609L91.3906 335.938V336.031H96.6094V337.5H89ZM102.453 337.656C99.8359 337.656 98.2969 335.547 98.2969 331.844C98.2969 328.164 99.8516 326.031 102.453 326.031C105.047 326.031 106.602 328.164 106.609 331.844C106.602 335.547 105.07 337.656 102.453 337.656ZM100.016 331.844C100.008 334.664 100.922 336.172 102.453 336.172C103.977 336.172 104.891 334.664 104.891 331.844C104.891 329.031 103.969 327.492 102.453 327.484C100.93 327.492 100.016 329.031 100.016 331.844ZM108.391 337.5V336.25L112.312 332.297C113.555 331.008 114.172 330.289 114.172 329.297C114.172 328.18 113.266 327.469 112.078 327.469C110.82 327.469 110.023 328.266 110.016 329.469H108.391C108.375 327.398 109.953 326.031 112.109 326.031C114.289 326.031 115.797 327.414 115.812 329.25C115.797 330.516 115.203 331.523 113.078 333.609L110.781 335.938V336.031H116V337.5H108.391ZM121.922 337.656C119.578 337.656 117.914 336.398 117.844 334.547H119.594C119.656 335.539 120.641 336.172 121.906 336.172C123.273 336.172 124.266 335.43 124.266 334.328C124.266 333.211 123.336 332.414 121.719 332.406H120.75V331H121.719C123.008 331.008 123.906 330.289 123.906 329.203C123.906 328.172 123.133 327.469 121.938 327.469C120.805 327.469 119.789 328.102 119.75 329.125H118.094C118.141 327.281 119.844 326.031 121.953 326.031C124.18 326.031 125.578 327.438 125.562 329.109C125.578 330.398 124.781 331.32 123.562 331.625V331.703C125.109 331.922 126.008 332.961 126 334.391C126.008 336.273 124.266 337.656 121.922 337.656Z" fill="white"/>
<path d="M141.062 337.5L141.047 336.469L144.906 332.406C146.242 330.984 146.883 330.219 146.891 329.172C146.883 328.008 145.914 327.258 144.641 327.25C143.289 327.258 142.445 328.109 142.438 329.375H141.109C141.094 327.375 142.641 326.031 144.688 326.031C146.742 326.031 148.195 327.414 148.203 329.172C148.195 330.438 147.609 331.422 145.609 333.484L143.016 336.156V336.25H148.406V337.5H141.062ZM158.266 326.375V327.375H149.984V326.375H153.516V324.812H154.734V326.375H158.266ZM150.781 330.609C150.773 329.078 152.117 328.109 154.125 328.094C156.117 328.109 157.453 329.078 157.469 330.609C157.453 332.117 156.117 333.102 154.125 333.109C152.117 333.102 150.773 332.117 150.781 330.609ZM151.719 335.328V334.328H160.812V338.766H159.594V335.328H151.719ZM151.953 330.609C151.945 331.531 152.812 332.133 154.125 332.125C155.422 332.133 156.297 331.531 156.312 330.609C156.297 329.664 155.422 329.055 154.125 329.047C152.812 329.055 151.945 329.664 151.953 330.609ZM159.594 333.562V324.875H160.812V328.734H162.906V329.766H160.812V333.562H159.594ZM175.297 324.891V335.172H174.062V330.359H170.062V329.375H174.062V327.703H170.062V326.719H174.062V324.891H175.297ZM164.609 333.109V325.891H165.844V332.062C167.758 332.055 169.602 331.945 171.719 331.562L171.844 332.578C169.586 333 167.695 333.094 165.656 333.109H164.609ZM166.344 338.469V334.297H167.578V337.438H175.672V338.469H166.344ZM182.484 337.5L187.672 327.516V327.438H181.688V326.188H189.125V327.5L183.953 337.5H182.484ZM201.938 324.875V338.766H200.703V324.875H201.938ZM190.625 335.156C194.383 333.375 196.305 330.711 196.578 327.391H191.266V326.391H197.828C197.812 330.383 195.953 333.922 191.297 336.156L190.625 335.156Z" fill="#888888"/>
<rect x="64" y="372" width="470" height="64" rx="12" fill="#222222" fill-opacity="0.64"/>
<rect x="279" y="400" width="8" height="8" rx="4" fill="#6D6D6D"/>
<rect x="295" y="400" width="8" height="8" rx="4" fill="#6D6D6D"/>
<rect x="311" y="400" width="8" height="8" rx="4" fill="#6D6D6D"/>
</g>
<defs>
<filter id="filter0_d_8764_1118" x="0" y="0" width="598" height="500" filterUnits="userSpaceOnUse" color-interpolation-filters="sRGB">
<feFlood flood-opacity="0" result="BackgroundImageFix"/>
<feColorMatrix in="SourceAlpha" type="matrix" values="0 0 0 0 0 0 0 0 0 0 0 0 0 0 0 0 0 0 127 0" result="hardAlpha"/>
<feOffset/>
<feGaussianBlur stdDeviation="20"/>
<feComposite in2="hardAlpha" operator="out"/>
<feColorMatrix type="matrix" values="0 0 0 0 0 0 0 0 0 0 0 0 0 0 0 0 0 0 0.08 0"/>
<feBlend mode="normal" in2="BackgroundImageFix" result="effect1_dropShadow_8764_1118"/>
<feBlend mode="normal" in="SourceGraphic" in2="effect1_dropShadow_8764_1118" result="shape"/>
</filter>
</defs>
</svg>
