<svg width="current" viewBox="0 0 72 24" fill="none" xmlns="http://www.w3.org/2000/svg">
<path d="M2.29977 22.1998V1.7998C11.0002 1.7998 12.6615 2.27482 14.7661 5.57659C15.4972 6.72348 16.7075 8.26204 19.9065 10.2881C22.9379 14.1436 22.6997 18.9172 22.6997 22.1998H2.29977Z" fill="#787878"/>
<path d="M21.5 5.99997C13.7 7.79998 2.30568 -1.80005 2.30566 22.2006H18.5L21.5 5.99997Z" fill="#D8D8D8"/>
<path d="M22.7 9.00003C10.7 7.80001 3.5 14.4 3.5 22.1997H22.6995L22.7 9.00003Z" fill="black"/>
<path d="M28.5723 18.5V5.77344H33.5645C36.4561 5.77344 38.1172 7.39941 38.1172 9.92188C38.1172 11.6621 37.3174 12.9277 35.8672 13.5518L38.5742 18.5H35.6562L33.2217 13.9824H31.209V18.5H28.5723ZM31.209 11.8379H33.0723C34.6367 11.8379 35.4014 11.1963 35.3926 9.92188C35.4014 8.63867 34.6367 7.94434 33.0723 7.93555H31.209V11.8379ZM44.0586 18.6934C41.1318 18.6846 39.3389 16.7949 39.3477 13.7715C39.3389 10.8271 41.1582 8.83203 43.9531 8.83203C46.458 8.83203 48.4355 10.4141 48.4355 13.666V14.4043H41.9141C41.9141 15.8457 42.7666 16.7334 44.1113 16.7422C44.999 16.7334 45.6318 16.3467 45.8867 15.7754H48.3652C47.9961 17.542 46.4141 18.6846 44.0586 18.6934ZM41.9141 12.7695H45.9746C45.9658 11.6094 45.166 10.7744 44.0059 10.7832C42.8105 10.7744 41.9668 11.6709 41.9141 12.7695ZM50.0703 22.0859V8.95508H52.6367V10.5547H52.7422C53.1025 9.78125 53.8584 8.83203 55.4668 8.83203C57.5762 8.83203 59.3428 10.4668 59.334 13.7363C59.3428 16.9268 57.6465 18.6582 55.4668 18.6582C53.9111 18.6582 53.1113 17.7617 52.7422 16.9707H52.6719V22.0859H50.0703ZM52.6191 13.7188C52.6104 15.4414 53.3486 16.5752 54.6406 16.584C55.9678 16.5752 56.6885 15.4062 56.6797 13.7188C56.6885 12.0576 55.9854 10.9062 54.6406 10.9062C53.3398 10.9062 52.6104 12.0049 52.6191 13.7188ZM65.3105 18.6934C62.4277 18.6846 60.626 16.707 60.6348 13.7539C60.626 10.8096 62.4277 8.83203 65.3105 8.83203C68.2021 8.83203 69.9951 10.8096 70.0039 13.7539C69.9951 16.707 68.2021 18.6846 65.3105 18.6934ZM63.2715 13.7539C63.2715 15.4238 63.9658 16.6631 65.3281 16.6719C66.6553 16.6631 67.3584 15.4238 67.3496 13.7539C67.3584 12.0752 66.6553 10.8184 65.3281 10.8184C63.9658 10.8184 63.2715 12.0752 63.2715 13.7539Z" fill="white"/>
</svg>
