<svg width="71" height="24" viewBox="0 0 71 24" fill="none" xmlns="http://www.w3.org/2000/svg">
<path d="M1.79977 22.1998V1.7998C10.5002 1.7998 12.1615 2.27482 14.2661 5.57659C14.9972 6.72348 16.2075 8.26204 19.4065 10.2881C22.4379 14.1436 22.1997 18.9172 22.1997 22.1998H1.79977Z" fill="#787878"/>
<path d="M21 5.99997C13.2 7.79998 1.80568 -1.80005 1.80566 22.2006H18L21 5.99997Z" fill="#D8D8D8"/>
<path d="M22.2 9.00003C10.2 7.80001 3 14.4 3 22.1997H22.1995L22.2 9.00003Z" fill="black"/>
<path d="M28.0723 18.5V5.77344H33.0645C35.9648 5.77344 37.6172 7.4082 37.6172 9.92188C37.6172 11.6621 36.8174 12.9277 35.3672 13.543L38.0742 18.5H35.1562L32.7305 13.9824H30.709V18.5H28.0723ZM30.709 11.8379H32.5723C34.1367 11.8379 34.8926 11.1875 34.8926 9.92188C34.8926 8.63867 34.1367 7.93555 32.5723 7.93555H30.709V11.8379ZM43.5586 18.6934C40.6406 18.6934 38.8477 16.7949 38.8477 13.7715C38.8477 10.8184 40.6582 8.83203 43.4531 8.83203C45.9668 8.83203 47.9355 10.4141 47.9355 13.666V14.4043H41.4141C41.4141 15.8457 42.2754 16.7422 43.6113 16.7422C44.4902 16.7422 45.123 16.3555 45.3867 15.7754H47.8652C47.4961 17.5332 45.9141 18.6934 43.5586 18.6934ZM41.4141 12.7695H45.4746C45.4746 11.6094 44.666 10.7832 43.5059 10.7832C42.3105 10.7832 41.458 11.6709 41.4141 12.7695ZM49.5703 22.0859V8.95508H52.1367V10.5547H52.2422C52.5938 9.78125 53.3672 8.83203 54.9668 8.83203C57.0762 8.83203 58.834 10.4668 58.834 13.7363C58.834 16.918 57.1465 18.6582 54.9668 18.6582C53.4023 18.6582 52.6113 17.7617 52.2422 16.9707H52.1719V22.0859H49.5703ZM52.1191 13.7188C52.1191 15.4414 52.8574 16.584 54.1406 16.584C55.4766 16.584 56.1797 15.4062 56.1797 13.7188C56.1797 12.0488 55.4766 10.9062 54.1406 10.9062C52.8398 10.9062 52.1191 11.9961 52.1191 13.7188ZM64.8105 18.6934C61.9277 18.6934 60.1348 16.707 60.1348 13.7539C60.1348 10.8008 61.9277 8.83203 64.8105 8.83203C67.6934 8.83203 69.5039 10.8008 69.5039 13.7539C69.5039 16.707 67.6934 18.6934 64.8105 18.6934ZM64.8281 16.6719C66.1641 16.6719 66.8496 15.4238 66.8496 13.7539C66.8496 12.0664 66.1641 10.8184 64.8281 10.8184C63.4746 10.8184 62.7715 12.0664 62.7715 13.7539C62.7715 15.4238 63.4746 16.6719 64.8281 16.6719Z" fill="white"/>
</svg>
