<svg width="71" height="24" viewBox="0 0 71 24" fill="none" xmlns="http://www.w3.org/2000/svg">
<path d="M1.79977 22.2008V1.80078C10.5002 1.80078 12.1615 2.2758 14.2661 5.57756C14.9972 6.72446 16.2075 8.26302 19.4065 10.2891C22.4379 14.1446 22.1997 18.9181 22.1997 22.2008H1.79977Z" fill="#787878"/>
<path d="M21 5.99997C13.2 7.79998 1.80568 -1.80005 1.80566 22.2006H18L21 5.99997Z" fill="#D8D8D8"/>
<path d="M22.2 9.001C10.2 7.80099 3 14.401 3 22.2007H22.1995L22.2 9.001Z" fill="black"/>
<path d="M28.0723 5.77344H33.0645C34.0137 5.77344 34.8311 5.94336 35.5166 6.2832C36.2021 6.62305 36.7236 7.10645 37.0811 7.7334C37.4385 8.35449 37.6172 9.08398 37.6172 9.92188C37.6172 10.7891 37.4238 11.5332 37.0371 12.1543C36.6504 12.7754 36.0938 13.2412 35.3672 13.5518L38.0742 18.5H35.1562L32.7217 13.9824H30.709V18.5H28.0723V5.77344ZM32.5723 11.8379C34.1309 11.8379 34.9043 11.1992 34.8926 9.92188C34.8984 9.27734 34.708 8.78809 34.3213 8.4541C33.9346 8.11426 33.3516 7.94141 32.5723 7.93555H30.709V11.8379H32.5723ZM43.5586 18.6934C42.5918 18.6934 41.7539 18.4941 41.0449 18.0957C40.3359 17.6914 39.791 17.1201 39.4102 16.3818C39.0352 15.6436 38.8477 14.7734 38.8477 13.7715C38.8477 12.7988 39.0352 11.9404 39.4102 11.1963C39.791 10.4463 40.3301 9.86621 41.0273 9.45605C41.7246 9.04004 42.5332 8.83203 43.4531 8.83203C44.3086 8.83203 45.0732 9.01367 45.7471 9.37695C46.4268 9.73438 46.96 10.2764 47.3467 11.0029C47.7393 11.7295 47.9355 12.6172 47.9355 13.666V14.4043H41.4141C41.4141 14.8789 41.502 15.292 41.6777 15.6436C41.8594 15.9951 42.1143 16.2676 42.4424 16.4609C42.7764 16.6484 43.166 16.7422 43.6113 16.7422C44.0449 16.7363 44.417 16.6484 44.7275 16.4785C45.0381 16.3027 45.2578 16.0684 45.3867 15.7754H47.8652C47.7422 16.3672 47.4902 16.8828 47.1094 17.3223C46.7285 17.7559 46.2334 18.0928 45.624 18.333C45.0205 18.5732 44.332 18.6934 43.5586 18.6934ZM45.4746 12.7695C45.4746 12.3887 45.3896 12.0459 45.2197 11.7412C45.0557 11.4365 44.8242 11.2021 44.5254 11.0381C44.2266 10.8682 43.8867 10.7832 43.5059 10.7832C43.1191 10.7832 42.7676 10.8711 42.4512 11.0469C42.1406 11.2227 41.8945 11.4629 41.7129 11.7676C41.5312 12.0723 41.4316 12.4062 41.4141 12.7695H45.4746ZM49.5703 8.95508H52.1367V10.5547H52.2422C52.4648 10.0742 52.793 9.66699 53.2266 9.33301C53.6602 8.99902 54.2402 8.83203 54.9668 8.83203C55.6875 8.83203 56.3408 9.01953 56.9268 9.39453C57.5127 9.76367 57.9756 10.3174 58.3154 11.0557C58.6611 11.7881 58.834 12.6816 58.834 13.7363C58.834 14.7676 58.667 15.6553 58.333 16.3994C57.999 17.1377 57.5391 17.7002 56.9531 18.0869C56.3672 18.4678 55.7051 18.6582 54.9668 18.6582C54.2578 18.6582 53.6807 18.4971 53.2354 18.1748C52.7959 17.8467 52.4648 17.4453 52.2422 16.9707H52.1719V22.0859H49.5703V8.95508ZM52.1191 13.6924C52.1191 14.5713 52.2949 15.2715 52.6465 15.793C53.0039 16.3145 53.502 16.5781 54.1406 16.584C54.7852 16.5781 55.2861 16.3174 55.6436 15.8018C56.001 15.2861 56.1797 14.6006 56.1797 13.7451C56.1797 12.8838 56.0039 12.1953 55.6523 11.6797C55.3008 11.1641 54.7969 10.9062 54.1406 10.9062C53.502 10.9062 53.0039 11.1553 52.6465 11.6533C52.2949 12.1514 52.1191 12.8311 52.1191 13.6924ZM64.8105 18.6934C63.8613 18.6934 63.0322 18.4883 62.3232 18.0781C61.6201 17.6621 61.0781 17.082 60.6973 16.3379C60.3223 15.5938 60.1348 14.7324 60.1348 13.7539C60.1348 12.7754 60.3223 11.917 60.6973 11.1787C61.0781 10.4346 61.6201 9.85742 62.3232 9.44727C63.0322 9.03711 63.8613 8.83203 64.8105 8.83203C65.7598 8.83203 66.5859 9.03711 67.2891 9.44727C67.998 9.85742 68.543 10.4346 68.9238 11.1787C69.3105 11.917 69.5039 12.7754 69.5039 13.7539C69.5039 14.7324 69.3105 15.5938 68.9238 16.3379C68.543 17.082 67.998 17.6621 67.2891 18.0781C66.5859 18.4883 65.7598 18.6934 64.8105 18.6934ZM62.7715 13.7539C62.7715 14.3223 62.8477 14.8262 63 15.2656C63.1582 15.6992 63.3926 16.042 63.7031 16.2939C64.0137 16.5459 64.3887 16.6719 64.8281 16.6719C65.2559 16.6719 65.6221 16.5488 65.9268 16.3027C66.2314 16.0508 66.46 15.708 66.6123 15.2744C66.7705 14.8408 66.8496 14.3457 66.8496 13.7891C66.8496 13.2148 66.7734 12.7051 66.6211 12.2598C66.4688 11.8086 66.2402 11.457 65.9355 11.2051C65.6309 10.9473 65.2617 10.8184 64.8281 10.8184C64.3887 10.8184 64.0137 10.9443 63.7031 11.1963C63.3926 11.4482 63.1582 11.7969 63 12.2422C62.8477 12.6816 62.7715 13.1855 62.7715 13.7539Z" fill="white"/>
</svg>
