<svg width="24" height="24" viewBox="0 0 24 24" fill="none" xmlns="http://www.w3.org/2000/svg">
<path fill-rule="evenodd" clip-rule="evenodd" d="M8.16168 2L12.678 2C12.7981 2 12.9094 2 13.0095 2.00092C13.3023 2.00359 13.5803 2.01317 13.8716 2.0831C14.1771 2.15644 14.4703 2.27746 14.7393 2.44228C15.0448 2.62948 15.2985 2.88367 15.5857 3.17146C15.6052 3.19095 15.6248 3.2106 15.6446 3.23039L18.7701 6.35588C18.7888 6.37458 18.8074 6.39311 18.8258 6.4115C19.1158 6.70106 19.3694 6.95423 19.5572 7.2607C19.7212 7.52832 19.843 7.82088 19.9167 8.12789C19.9866 8.41913 19.9963 8.69801 19.999 8.99088C19.9999 9.09158 20 9.20336 20 9.32569V17.8421C20 18.3682 20 18.8222 19.9695 19.1962C19.9372 19.591 19.8659 19.9838 19.6732 20.3619C19.3854 20.9269 18.9254 21.3859 18.3614 21.6732C17.9833 21.8659 17.5905 21.9372 17.1957 21.9695C16.8217 22 16.3677 22 15.8416 22L8.15842 22C7.63232 22 7.17816 22 6.80397 21.9695C6.40906 21.9372 6.016 21.8659 5.63781 21.6732C5.07276 21.3853 4.61432 20.9258 4.32698 20.3619C4.13421 19.9835 4.06288 19.5904 4.03057 19.1951C3.99997 18.8206 3.99998 18.3659 4 17.8388V6.16168C3.99998 5.63451 3.99997 5.17965 4.03057 4.80499C4.06286 4.40962 4.13416 4.01625 4.32698 3.63781C4.6146 3.07332 5.07332 2.6146 5.63781 2.32698C6.01625 2.13416 6.40962 2.06286 6.80499 2.03057C7.17965 1.99997 7.6345 1.99998 8.16168 2ZM6.9678 4.02393C6.69595 4.04614 6.59518 4.08383 6.54579 4.109C6.35763 4.20487 6.20487 4.35763 6.109 4.54579C6.08383 4.59517 6.04614 4.69595 6.02393 4.9678C6.00078 5.25126 6 5.62365 6 6.2002V17.8002C6 18.3768 6.00078 18.7489 6.02393 19.0322C6.04612 19.3037 6.08378 19.4044 6.109 19.4539C6.20516 19.6426 6.35819 19.7956 6.54579 19.8912C6.59501 19.9163 6.69555 19.9539 6.96687 19.9761C7.24981 19.9992 7.62148 20 8.19694 20L15.8031 20C16.3786 20 16.75 19.9992 17.0327 19.9761C17.3036 19.954 17.4041 19.9164 17.4534 19.8912C17.6421 19.7951 17.7956 19.6415 17.8912 19.4539C17.9164 19.4046 17.954 19.3041 17.9761 19.0332C17.9992 18.7505 18 18.379 18 17.8036V10L16.1584 10C15.6323 10 15.1782 10 14.804 9.96946C14.4091 9.93719 14.016 9.86593 13.6378 9.67324C13.0729 9.38538 12.6144 8.92598 12.327 8.36197C12.1342 7.98362 12.0629 7.59048 12.0306 7.19514C12 6.82062 12 6.36591 12 5.83878L12.0002 4H8.2002C7.62365 4 7.25126 4.00078 6.9678 4.02393ZM14.0002 4.41623C14.0617 4.47645 14.1369 4.55115 14.2304 4.64461L17.3559 7.77009C17.4492 7.86344 17.5238 7.93858 17.5839 8H16.1969C15.6215 8 15.2498 7.99922 14.9669 7.9761C14.6955 7.95393 14.595 7.9163 14.5458 7.89122C14.3581 7.79559 14.2051 7.64262 14.109 7.45399C14.0838 7.40451 14.0461 7.30382 14.0239 7.03225C14.0008 6.749 14 6.37683 14 5.80035L14.0002 4.41623ZM8 14C8 13.4477 8.44772 13 9 13H15C15.5523 13 16 13.4477 16 14C16 14.5523 15.5523 15 15 15H9C8.44772 15 8 14.5523 8 14ZM8 17C8 16.4477 8.44772 16 9 16H15C15.5523 16 16 16.4477 16 17C16 17.5523 15.5523 18 15 18H9C8.44772 18 8 17.5523 8 17Z" fill="current"/>
</svg>
