<svg width="24" height="24" viewBox="0 0 24 24" fill="none" xmlns="http://www.w3.org/2000/svg">
<path fill-rule="evenodd" clip-rule="evenodd" d="M16.8644 5.04937C16.7492 5.01174 16.6014 5.00001 15.8571 5.00001H8.14258C7.39849 5.00001 7.25178 5.01172 7.13646 5.04937C7.00232 5.09315 6.87872 5.16488 6.7747 5.25913C6.68499 5.34041 6.60205 5.46194 6.23343 6.10703C6.23342 6.10703 6.23343 6.10703 6.23343 6.10703L5.72316 7.00001H18.2769L17.7675 6.10845C17.7675 6.10844 17.7675 6.10846 17.7675 6.10845C17.3986 5.46294 17.315 5.34067 17.225 5.25913C17.12 5.16393 16.9972 5.09271 16.8644 5.04937ZM19 9.00001H5V16.8C5 17.3766 5.00078 17.7487 5.02393 18.032C5.04612 18.3034 5.08377 18.4041 5.109 18.4536C5.20532 18.6426 5.3585 18.7958 5.54579 18.8912C5.59501 18.9163 5.69554 18.9539 5.96686 18.9761C6.2498 18.9992 6.62146 19 7.19691 19H16.8031C17.3786 19 17.75 18.9992 18.0327 18.9761C18.3036 18.954 18.4041 18.9164 18.4534 18.8912C18.6418 18.7953 18.7955 18.6416 18.8912 18.4536C18.9163 18.4043 18.9539 18.3039 18.9761 18.0328C18.9992 17.75 19 17.3786 19 16.8031V9.00001ZM15.9739 2.99991C16.5337 2.99921 17.027 2.99859 17.485 3.14808C17.8874 3.27941 18.2558 3.49423 18.5679 3.77702C18.9254 4.10089 19.1694 4.52911 19.4473 5.01686C19.4661 5.0497 19.4849 5.08281 19.504 5.11618L20.8683 7.50391C20.9546 7.655 21 7.826 21 8.00001V16.8416C21 17.3677 21 17.8217 20.9695 18.1958C20.9372 18.5906 20.8659 18.9835 20.6732 19.3616C20.3855 19.9263 19.9257 20.3857 19.3614 20.6732C18.9833 20.8659 18.5905 20.9372 18.1957 20.9695C17.8217 21 17.3677 21 16.8416 21H7.15839C6.6323 21 6.17815 21 5.80397 20.9695C5.40906 20.9372 5.016 20.8659 4.63781 20.6732C4.07245 20.3852 3.61416 19.9252 3.32698 19.3616C3.13422 18.9833 3.06288 18.5902 3.03057 18.1949C2.99997 17.8204 2.99998 17.3657 3 16.8386L3 8.00001C3 7.82598 3.04542 7.65497 3.13175 7.50388L4.49693 5.11477C4.51637 5.08075 4.53561 5.04698 4.55469 5.0135C4.8314 4.52783 5.07498 4.10033 5.43181 3.77702C5.74497 3.49328 6.11486 3.27897 6.51589 3.14808C6.97387 2.9986 7.46598 2.99921 8.02585 2.99991C8.06443 2.99996 8.10334 3.00001 8.14258 3.00001H15.8571C15.8963 3.00001 15.9353 2.99996 15.9739 2.99991ZM12 10C12.5523 10 13 10.4477 13 11V15.1315L14.4453 14.168C14.9048 13.8616 15.5257 13.9858 15.8321 14.4453C16.1384 14.9048 16.0142 15.5257 15.5547 15.8321L12.5547 17.8321C12.2188 18.056 11.7812 18.056 11.4453 17.8321L8.4453 15.8321C7.98577 15.5257 7.8616 14.9048 8.16795 14.4453C8.4743 13.9858 9.09517 13.8616 9.5547 14.168L11 15.1315V11C11 10.4477 11.4477 10 12 10Z" fill="current"/>
</svg>
