<svg width="24" height="24" viewBox="0 0 24 24" fill="none" xmlns="http://www.w3.org/2000/svg">
<path fill-rule="evenodd" clip-rule="evenodd" d="M8.16168 2L12.678 2C12.798 2 12.909 2 13.0091 2.00091C13.3008 2.00357 13.5804 2.01282 13.8723 2.08289C14.1792 2.15657 14.4716 2.27821 14.7393 2.44228C15.0448 2.62948 15.2985 2.88368 15.5858 3.17147C15.6052 3.19096 15.6248 3.2106 15.6446 3.2304L18.7701 6.35588C18.7888 6.37459 18.8074 6.39312 18.8258 6.41151C19.1158 6.70106 19.3694 6.95423 19.5572 7.2607C19.7212 7.52832 19.843 7.82088 19.9167 8.12789C19.9827 8.40258 19.9949 8.66637 19.9985 8.94072C19.9996 8.96034 20.0002 8.9801 20.0002 9C20.0002 9.01337 19.9999 9.02669 19.9994 9.03993C20 9.12793 20 9.22355 20 9.32569V17.8421C20 18.3682 20 18.8222 19.9695 19.1962C19.9372 19.591 19.8659 19.9838 19.6732 20.3619C19.3854 20.9269 18.9254 21.3859 18.3614 21.6732C17.9833 21.8659 17.5905 21.9372 17.1957 21.9695C16.8217 22 16.3677 22 15.8416 22L8.15842 22C7.63232 22 7.17816 22 6.80398 21.9695C6.40906 21.9372 6.016 21.8659 5.63781 21.6732C5.07276 21.3853 4.61432 20.9258 4.32698 20.3619C4.13421 19.9835 4.06288 19.5904 4.03057 19.1951C3.99997 18.8206 3.99998 18.3659 4 17.8388V6.16168C3.99998 5.63451 3.99997 5.17965 4.03057 4.80499C4.06286 4.40962 4.13416 4.01625 4.32698 3.63781C4.6146 3.07332 5.07332 2.6146 5.63781 2.32698C6.01625 2.13416 6.40962 2.06286 6.80499 2.03057C7.17965 1.99997 7.63451 1.99998 8.16168 2ZM17.5839 8C17.5238 7.93858 17.4492 7.86344 17.3559 7.77009L14.2304 4.64461C14.1368 4.55106 14.0615 4.4763 14 4.41605V5.8C14 6.37656 14.0008 6.74872 14.0239 7.03195C14.0461 7.30344 14.0838 7.4041 14.109 7.4536C14.2053 7.64264 14.3585 7.79579 14.5458 7.89122C14.595 7.9163 14.6955 7.95393 14.9669 7.9761C15.2498 7.99922 15.6215 8 16.1969 8H17.5839ZM12 4L12 5.83856C12 6.36569 12 6.82037 12.0306 7.19486C12.0629 7.59018 12.1342 7.98326 12.327 8.36158C12.6142 8.9252 13.0724 9.38517 13.6378 9.67323C14.016 9.86593 14.4091 9.93719 14.804 9.96946C15.1782 10 15.6323 10 16.1584 10L18 10V17.8036C18 18.379 17.9992 18.7505 17.9761 19.0332C17.954 19.3041 17.9164 19.4046 17.8912 19.4539C17.7956 19.6415 17.6421 19.7951 17.4534 19.8912C17.4041 19.9164 17.3036 19.954 17.0327 19.9761C16.75 19.9992 16.3786 20 15.8031 20L8.19694 20C7.62148 20 7.24982 19.9992 6.96687 19.9761C6.69555 19.9539 6.59501 19.9163 6.54579 19.8912C6.35819 19.7956 6.20516 19.6426 6.109 19.4539C6.08378 19.4044 6.04612 19.3037 6.02393 19.0322C6.00078 18.7489 6 18.3768 6 17.8002V6.2002C6 5.62365 6.00078 5.25126 6.02393 4.9678C6.04614 4.69595 6.08383 4.59517 6.109 4.54579C6.20487 4.35763 6.35763 4.20487 6.54579 4.109C6.59517 4.08383 6.69595 4.04614 6.9678 4.02393C7.25126 4.00078 7.62365 4 8.2002 4H12Z" fill="current"/>
</svg>
