<svg width="71" height="24" viewBox="0 0 71 24" fill="none" xmlns="http://www.w3.org/2000/svg">
<path d="M-0.000339508 22V2C8.52953 2 10.1582 2.4657 12.2216 5.70273C12.9383 6.82714 14.1249 8.33553 17.2612 10.3219C20.2331 14.1018 19.9996 18.7817 19.9996 22H-0.000339508Z" fill="#787878"/>
<path d="M18.8239 6.11794C11.1768 7.88265 0.0058782 -1.52914 0.00585938 22.0009H15.8827L18.8239 6.11794Z" fill="#D8D8D8"/>
<path d="M20.0003 9.05926C8.23558 7.88278 1.17676 14.3534 1.17676 22.0002H19.9998L20.0003 9.05926Z" fill="black"/>
<path d="M24.1914 4.85938H29.7383C30.7995 4.85938 31.7077 5.04818 32.4629 5.42578C33.2246 5.80339 33.804 6.34049 34.2012 7.03711C34.5983 7.72721 34.7969 8.53776 34.7969 9.46875C34.7969 10.4323 34.582 11.2591 34.1523 11.9492C33.7227 12.6393 33.1042 13.1569 32.2969 13.502L35.3047 19H32.0625L29.3574 13.9805H27.1211V19H24.1914V4.85938ZM29.1914 11.5977C30.9102 11.5977 31.7695 10.888 31.7695 9.46875C31.7695 8.74609 31.5547 8.19922 31.125 7.82812C30.6953 7.45052 30.0508 7.26172 29.1914 7.26172H27.1211V11.5977H29.1914ZM41.3984 19.2148C40.3242 19.2148 39.3932 18.9935 38.6055 18.5508C37.8242 18.1081 37.222 17.4766 36.7988 16.6562C36.3757 15.8294 36.1641 14.8594 36.1641 13.7461C36.1641 12.6589 36.3724 11.7018 36.7891 10.875C37.2122 10.0417 37.8112 9.39714 38.5859 8.94141C39.3607 8.48568 40.2591 8.25781 41.2812 8.25781C42.2318 8.25781 43.0814 8.45964 43.8301 8.86328C44.5853 9.26042 45.1777 9.86263 45.6074 10.6699C46.0436 11.4772 46.2617 12.4635 46.2617 13.6289V14.4492H39.0156C39.0156 14.9766 39.1133 15.4355 39.3086 15.8262C39.5104 16.2168 39.7936 16.5195 40.1582 16.7344C40.5293 16.9427 40.9622 17.0469 41.457 17.0469C41.9323 17.0469 42.3424 16.9525 42.6875 16.7637C43.0326 16.5684 43.2799 16.3047 43.4297 15.9727H46.1836C46.0469 16.6237 45.7669 17.1934 45.3438 17.6816C44.9206 18.1699 44.3704 18.5475 43.6934 18.8145C43.0228 19.0814 42.2578 19.2148 41.3984 19.2148ZM43.5273 12.6328C43.5273 12.2096 43.4329 11.832 43.2441 11.5C43.0618 11.1615 42.8047 10.8978 42.4727 10.709C42.1406 10.5202 41.763 10.4258 41.3398 10.4258C40.9102 10.4258 40.5195 10.5234 40.168 10.7188C39.8229 10.9141 39.5462 11.181 39.3379 11.5195C39.1361 11.8581 39.0286 12.2292 39.0156 12.6328H43.5273ZM48.0781 8.39453H50.9297V10.1719H51.0469C51.2878 9.63802 51.6523 9.18555 52.1406 8.81445C52.6289 8.44336 53.2734 8.25781 54.0742 8.25781C54.875 8.25781 55.6009 8.46615 56.252 8.88281C56.903 9.29297 57.4173 9.9082 57.7949 10.7285C58.179 11.5423 58.3711 12.5352 58.3711 13.707C58.3711 14.8529 58.1823 15.8392 57.8047 16.666C57.4336 17.4863 56.9225 18.1113 56.2715 18.541C55.627 18.9642 54.8945 19.1758 54.0742 19.1758C53.2865 19.1758 52.6452 18.9967 52.1504 18.6387C51.6621 18.2741 51.2943 17.8281 51.0469 17.3008H50.9688V22.9844H48.0781V8.39453ZM50.9102 13.6875C50.9102 14.3255 50.998 14.8854 51.1738 15.3672C51.3496 15.8424 51.6068 16.2135 51.9453 16.4805C52.2839 16.7409 52.6875 16.8711 53.1562 16.8711C53.8789 16.8711 54.4355 16.5814 54.8262 16.002C55.2233 15.4225 55.4219 14.651 55.4219 13.6875C55.4219 12.737 55.2233 11.9785 54.8262 11.4121C54.4355 10.8457 53.8789 10.5625 53.1562 10.5625C52.4401 10.5625 51.8867 10.8424 51.4961 11.4023C51.1055 11.9557 50.9102 12.7174 50.9102 13.6875ZM65.0117 19.2148C63.957 19.2148 63.0391 18.987 62.2578 18.5312C61.4766 18.0755 60.8743 17.4342 60.4512 16.6074C60.028 15.7741 59.8164 14.8138 59.8164 13.7266C59.8164 12.6393 60.0247 11.6823 60.4414 10.8555C60.8646 10.0286 61.4668 9.39062 62.248 8.94141C63.0358 8.48568 63.957 8.25781 65.0117 8.25781C66.0664 8.25781 66.9876 8.48568 67.7754 8.94141C68.5632 9.39062 69.1686 10.0286 69.5918 10.8555C70.015 11.6823 70.2266 12.6393 70.2266 13.7266C70.2266 14.8138 70.015 15.7741 69.5918 16.6074C69.1686 17.4342 68.5632 18.0755 67.7754 18.5312C66.9876 18.987 66.0664 19.2148 65.0117 19.2148ZM65.0312 16.9688C65.513 16.9688 65.9232 16.832 66.2617 16.5586C66.6003 16.2786 66.8542 15.8945 67.0234 15.4062C67.1927 14.918 67.2773 14.3581 67.2773 13.7266C67.2773 13.0951 67.1927 12.5352 67.0234 12.0469C66.8542 11.5521 66.6003 11.1647 66.2617 10.8848C65.9232 10.6048 65.513 10.4648 65.0312 10.4648C64.543 10.4648 64.1263 10.6048 63.7812 10.8848C63.4427 11.1647 63.1855 11.5521 63.0098 12.0469C62.834 12.5352 62.7461 13.0951 62.7461 13.7266C62.7461 14.3516 62.834 14.9115 63.0098 15.4062C63.1855 15.8945 63.4427 16.2786 63.7812 16.5586C64.1263 16.832 64.543 16.9688 65.0312 16.9688Z" fill="#F6F6F6"/>
</svg>
