<svg width="217" height="24" viewBox="0 0 217 24" fill="none" xmlns="http://www.w3.org/2000/svg">
<path d="M-0.000339508 22V2C8.52953 2 10.1582 2.4657 12.2216 5.70273C12.9383 6.82714 14.1249 8.33553 17.2612 10.3219C20.2331 14.1018 19.9996 18.7817 19.9996 22H-0.000339508Z" fill="#787878"/>
<path d="M18.8239 6.11794C11.1768 7.88265 0.0058782 -1.52914 0.00585938 22.0009H15.8827L18.8239 6.11794Z" fill="#D8D8D8"/>
<path d="M20.0003 9.05926C8.23558 7.88278 1.17676 14.3534 1.17676 22.0002H19.9998L20.0003 9.05926Z" fill="black"/>
<path d="M24.1914 4.85938H29.7383C30.7995 4.85938 31.7077 5.04818 32.4629 5.42578C33.2246 5.80339 33.804 6.34049 34.2012 7.03711C34.5983 7.72721 34.7969 8.53776 34.7969 9.46875C34.7969 10.4323 34.582 11.2591 34.1523 11.9492C33.7227 12.6393 33.1042 13.1569 32.2969 13.502L35.3047 19H32.0625L29.3574 13.9805H27.1211V19H24.1914V4.85938ZM29.1914 11.5977C30.9102 11.5977 31.7695 10.888 31.7695 9.46875C31.7695 8.74609 31.5547 8.19922 31.125 7.82812C30.6953 7.45052 30.0508 7.26172 29.1914 7.26172H27.1211V11.5977H29.1914ZM41.3984 19.2148C40.3242 19.2148 39.3932 18.9935 38.6055 18.5508C37.8242 18.1081 37.222 17.4766 36.7988 16.6562C36.3757 15.8294 36.1641 14.8594 36.1641 13.7461C36.1641 12.6589 36.3724 11.7018 36.7891 10.875C37.2122 10.0417 37.8112 9.39714 38.5859 8.94141C39.3607 8.48568 40.2591 8.25781 41.2812 8.25781C42.2318 8.25781 43.0814 8.45964 43.8301 8.86328C44.5853 9.26042 45.1777 9.86263 45.6074 10.6699C46.0436 11.4772 46.2617 12.4635 46.2617 13.6289V14.4492H39.0156C39.0156 14.9766 39.1133 15.4355 39.3086 15.8262C39.5104 16.2168 39.7936 16.5195 40.1582 16.7344C40.5293 16.9427 40.9622 17.0469 41.457 17.0469C41.9323 17.0469 42.3424 16.9525 42.6875 16.7637C43.0326 16.5684 43.2799 16.3047 43.4297 15.9727H46.1836C46.0469 16.6237 45.7669 17.1934 45.3438 17.6816C44.9206 18.1699 44.3704 18.5475 43.6934 18.8145C43.0228 19.0814 42.2578 19.2148 41.3984 19.2148ZM43.5273 12.6328C43.5273 12.2096 43.4329 11.832 43.2441 11.5C43.0618 11.1615 42.8047 10.8978 42.4727 10.709C42.1406 10.5202 41.763 10.4258 41.3398 10.4258C40.9102 10.4258 40.5195 10.5234 40.168 10.7188C39.8229 10.9141 39.5462 11.181 39.3379 11.5195C39.1361 11.8581 39.0286 12.2292 39.0156 12.6328H43.5273ZM48.0781 8.39453H50.9297V10.1719H51.0469C51.2878 9.63802 51.6523 9.18555 52.1406 8.81445C52.6289 8.44336 53.2734 8.25781 54.0742 8.25781C54.875 8.25781 55.6009 8.46615 56.252 8.88281C56.903 9.29297 57.4173 9.9082 57.7949 10.7285C58.179 11.5423 58.3711 12.5352 58.3711 13.707C58.3711 14.8529 58.1823 15.8392 57.8047 16.666C57.4336 17.4863 56.9225 18.1113 56.2715 18.541C55.627 18.9642 54.8945 19.1758 54.0742 19.1758C53.2865 19.1758 52.6452 18.9967 52.1504 18.6387C51.6621 18.2741 51.2943 17.8281 51.0469 17.3008H50.9688V22.9844H48.0781V8.39453ZM50.9102 13.6875C50.9102 14.3255 50.998 14.8854 51.1738 15.3672C51.3496 15.8424 51.6068 16.2135 51.9453 16.4805C52.2839 16.7409 52.6875 16.8711 53.1562 16.8711C53.8789 16.8711 54.4355 16.5814 54.8262 16.002C55.2233 15.4225 55.4219 14.651 55.4219 13.6875C55.4219 12.737 55.2233 11.9785 54.8262 11.4121C54.4355 10.8457 53.8789 10.5625 53.1562 10.5625C52.4401 10.5625 51.8867 10.8424 51.4961 11.4023C51.1055 11.9557 50.9102 12.7174 50.9102 13.6875ZM65.0117 19.2148C63.957 19.2148 63.0391 18.987 62.2578 18.5312C61.4766 18.0755 60.8743 17.4342 60.4512 16.6074C60.028 15.7741 59.8164 14.8138 59.8164 13.7266C59.8164 12.6393 60.0247 11.6823 60.4414 10.8555C60.8646 10.0286 61.4668 9.39062 62.248 8.94141C63.0358 8.48568 63.957 8.25781 65.0117 8.25781C66.0664 8.25781 66.9876 8.48568 67.7754 8.94141C68.5632 9.39062 69.1686 10.0286 69.5918 10.8555C70.015 11.6823 70.2266 12.6393 70.2266 13.7266C70.2266 14.8138 70.015 15.7741 69.5918 16.6074C69.1686 17.4342 68.5632 18.0755 67.7754 18.5312C66.9876 18.987 66.0664 19.2148 65.0117 19.2148ZM65.0312 16.9688C65.513 16.9688 65.9232 16.832 66.2617 16.5586C66.6003 16.2786 66.8542 15.8945 67.0234 15.4062C67.1927 14.918 67.2773 14.3581 67.2773 13.7266C67.2773 13.0951 67.1927 12.5352 67.0234 12.0469C66.8542 11.5521 66.6003 11.1647 66.2617 10.8848C65.9232 10.6048 65.513 10.4648 65.0312 10.4648C64.543 10.4648 64.1263 10.6048 63.7812 10.8848C63.4427 11.1647 63.1855 11.5521 63.0098 12.0469C62.834 12.5352 62.7461 13.0951 62.7461 13.7266C62.7461 14.3516 62.834 14.9115 63.0098 15.4062C63.1855 15.8945 63.4427 16.2786 63.7812 16.5586C64.1263 16.832 64.543 16.9688 65.0312 16.9688ZM76.7109 19V4.85938H81.75C83.1628 4.85938 84.3835 5.14258 85.4121 5.70898C86.4408 6.26888 87.2285 7.07943 87.7754 8.14062C88.3288 9.20182 88.6055 10.4583 88.6055 11.9102C88.6055 13.375 88.3288 14.6413 87.7754 15.709C87.222 16.7702 86.4277 17.584 85.3926 18.1504C84.3574 18.7168 83.1237 19 81.6914 19H76.7109ZM81.5742 16.4805C82.9414 16.4805 83.9668 16.1094 84.6504 15.3672C85.334 14.625 85.6758 13.4727 85.6758 11.9102C85.6758 10.3607 85.334 9.2181 84.6504 8.48242C83.9733 7.74674 82.9544 7.37891 81.5938 7.37891H79.6406V16.4805H81.5742ZM95.4805 19.2148C94.4062 19.2148 93.4753 18.9935 92.6875 18.5508C91.9062 18.1081 91.304 17.4766 90.8809 16.6562C90.4577 15.8294 90.2461 14.8594 90.2461 13.7461C90.2461 12.6589 90.4544 11.7018 90.8711 10.875C91.2943 10.0417 91.8932 9.39714 92.668 8.94141C93.4427 8.48568 94.3411 8.25781 95.3633 8.25781C96.3138 8.25781 97.1634 8.45964 97.9121 8.86328C98.6673 9.26042 99.2598 9.86263 99.6895 10.6699C100.126 11.4772 100.344 12.4635 100.344 13.6289V14.4492H93.0977C93.0977 14.9766 93.1953 15.4355 93.3906 15.8262C93.5924 16.2168 93.8757 16.5195 94.2402 16.7344C94.6113 16.9427 95.0443 17.0469 95.5391 17.0469C96.0143 17.0469 96.4245 16.9525 96.7695 16.7637C97.1146 16.5684 97.362 16.3047 97.5117 15.9727H100.266C100.129 16.6237 99.849 17.1934 99.4258 17.6816C99.0026 18.1699 98.4525 18.5475 97.7754 18.8145C97.1048 19.0814 96.3398 19.2148 95.4805 19.2148ZM97.6094 12.6328C97.6094 12.2096 97.515 11.832 97.3262 11.5C97.1439 11.1615 96.8867 10.8978 96.5547 10.709C96.2227 10.5202 95.8451 10.4258 95.4219 10.4258C94.9922 10.4258 94.6016 10.5234 94.25 10.7188C93.9049 10.9141 93.6283 11.181 93.4199 11.5195C93.2181 11.8581 93.1107 12.2292 93.0977 12.6328H97.6094ZM108.215 11.5391C108.156 11.168 107.971 10.8717 107.658 10.6504C107.346 10.4225 106.952 10.3086 106.477 10.3086C106.164 10.3086 105.881 10.3574 105.627 10.4551C105.38 10.5462 105.184 10.6764 105.041 10.8457C104.898 11.0085 104.829 11.194 104.836 11.4023C104.816 11.9036 105.272 12.2552 106.203 12.457L108.098 12.8477C109.126 13.0625 109.891 13.4043 110.393 13.873C110.9 14.3418 111.158 14.957 111.164 15.7188C111.158 16.4089 110.956 17.0176 110.559 17.5449C110.168 18.0723 109.618 18.4824 108.908 18.7754C108.199 19.0684 107.382 19.2148 106.457 19.2148C105.513 19.2148 104.696 19.0814 104.006 18.8145C103.316 18.541 102.772 18.1536 102.375 17.6523C101.984 17.1445 101.75 16.5456 101.672 15.8555H104.582C104.647 16.2721 104.842 16.5879 105.168 16.8027C105.493 17.0176 105.923 17.125 106.457 17.125C106.984 17.125 107.408 17.0241 107.727 16.8223C108.052 16.6204 108.215 16.3503 108.215 16.0117C108.215 15.7383 108.098 15.5169 107.863 15.3477C107.635 15.1719 107.271 15.0286 106.77 14.918L105.012 14.5664C104.009 14.3711 103.247 14.0163 102.727 13.502C102.206 12.9876 101.952 12.3398 101.965 11.5586C101.958 10.888 102.137 10.3053 102.502 9.81055C102.867 9.30924 103.387 8.92513 104.064 8.6582C104.742 8.39128 105.533 8.25781 106.438 8.25781C107.316 8.25781 108.085 8.39128 108.742 8.6582C109.4 8.92513 109.914 9.30599 110.285 9.80078C110.663 10.2891 110.878 10.8685 110.93 11.5391H108.215ZM112.941 8.39453H115.832V19H112.941V8.39453ZM114.387 7.00781C114.1 7.00781 113.833 6.94271 113.586 6.8125C113.345 6.67578 113.153 6.49674 113.01 6.27539C112.873 6.04753 112.805 5.80339 112.805 5.54297C112.805 5.27604 112.873 5.02865 113.01 4.80078C113.153 4.57292 113.345 4.39388 113.586 4.26367C113.833 4.12695 114.1 4.05859 114.387 4.05859C114.667 4.05859 114.927 4.12695 115.168 4.26367C115.409 4.39388 115.598 4.57292 115.734 4.80078C115.878 5.02865 115.949 5.27604 115.949 5.54297C115.949 5.80339 115.878 6.04753 115.734 6.27539C115.598 6.49674 115.409 6.67578 115.168 6.8125C114.927 6.94271 114.667 7.00781 114.387 7.00781ZM122.844 23.1992C121.88 23.1992 121.04 23.0625 120.324 22.7891C119.608 22.5156 119.045 22.1283 118.635 21.627C118.231 21.1322 118 20.5495 117.941 19.8789H120.793C120.871 20.2891 121.092 20.5951 121.457 20.7969C121.828 21.0052 122.31 21.1094 122.902 21.1094C123.612 21.1094 124.162 20.9434 124.553 20.6113C124.95 20.2858 125.148 19.7682 125.148 19.0586V17.125H125.012C124.79 17.6133 124.426 18.0234 123.918 18.3555C123.417 18.681 122.772 18.8438 121.984 18.8438C121.164 18.8438 120.428 18.6517 119.777 18.2676C119.126 17.877 118.612 17.291 118.234 16.5098C117.857 15.7285 117.668 14.7682 117.668 13.6289C117.668 12.4701 117.86 11.487 118.244 10.6797C118.628 9.8724 119.146 9.26693 119.797 8.86328C120.454 8.45964 121.184 8.25781 121.984 8.25781C122.785 8.25781 123.43 8.44336 123.918 8.81445C124.406 9.18555 124.771 9.63802 125.012 10.1719H125.129V8.39453H128V19.1172C128 19.9961 127.782 20.7415 127.346 21.3535C126.91 21.9655 126.304 22.4245 125.529 22.7305C124.755 23.043 123.859 23.1992 122.844 23.1992ZM122.883 16.6758C123.599 16.6758 124.156 16.4121 124.553 15.8848C124.95 15.3509 125.148 14.612 125.148 13.668C125.148 12.7109 124.95 11.9557 124.553 11.4023C124.156 10.8424 123.599 10.5625 122.883 10.5625C122.167 10.5625 121.613 10.8457 121.223 11.4121C120.832 11.972 120.637 12.724 120.637 13.668C120.637 14.599 120.829 15.3346 121.213 15.875C121.604 16.4089 122.16 16.6758 122.883 16.6758ZM133.137 19H130.246V8.39453H133V10.25H133.117C133.365 9.625 133.765 9.13672 134.318 8.78516C134.872 8.43359 135.533 8.25781 136.301 8.25781C137.036 8.25781 137.681 8.41732 138.234 8.73633C138.788 9.05534 139.214 9.51758 139.514 10.123C139.813 10.722 139.96 11.4284 139.953 12.2422V19H137.082V12.75C137.082 12.099 136.913 11.5879 136.574 11.2168C136.236 10.8457 135.767 10.6602 135.168 10.6602C134.549 10.6602 134.055 10.8555 133.684 11.2461C133.319 11.6367 133.137 12.1771 133.137 12.8672V19ZM154.543 8.90234C154.484 8.34245 154.24 7.90625 153.811 7.59375C153.381 7.28125 152.811 7.125 152.102 7.125C151.613 7.125 151.193 7.19661 150.842 7.33984C150.497 7.47656 150.233 7.66862 150.051 7.91602C149.868 8.16341 149.777 8.44661 149.777 8.76562C149.777 9.22135 149.982 9.58594 150.393 9.85938C150.803 10.1328 151.353 10.3477 152.043 10.5039L153.312 10.8164C154.621 11.1094 155.653 11.5944 156.408 12.2715C157.17 12.9421 157.551 13.8372 157.551 14.957C157.551 15.8229 157.333 16.5749 156.896 17.2129C156.46 17.8444 155.832 18.3327 155.012 18.6777C154.191 19.0228 153.215 19.1953 152.082 19.1953C150.936 19.1953 149.94 19.0195 149.094 18.668C148.254 18.3164 147.6 17.7988 147.131 17.1152C146.669 16.4251 146.424 15.582 146.398 14.5859H149.25C149.296 15.2826 149.569 15.8164 150.07 16.1875C150.578 16.5521 151.236 16.7344 152.043 16.7344C152.551 16.7344 152.997 16.6595 153.381 16.5098C153.765 16.36 154.061 16.1517 154.27 15.8848C154.478 15.6178 154.582 15.3086 154.582 14.957C154.582 14.5013 154.383 14.14 153.986 13.873C153.596 13.6061 152.987 13.3685 152.16 13.1602L150.617 12.7891C148.052 12.1576 146.77 10.875 146.77 8.94141C146.77 8.09505 146.997 7.34961 147.453 6.70508C147.915 6.05404 148.553 5.55273 149.367 5.20117C150.181 4.8431 151.099 4.66406 152.121 4.66406C153.15 4.66406 154.058 4.8431 154.846 5.20117C155.633 5.55924 156.245 6.06055 156.682 6.70508C157.118 7.3431 157.342 8.07552 157.355 8.90234H154.543ZM161.105 22.9844C160.5 22.9844 160.012 22.9648 159.641 22.9258V20.6797C160.135 20.7057 160.526 20.7188 160.812 20.7188C161.04 20.7188 161.229 20.6992 161.379 20.6602C161.535 20.6211 161.682 20.5299 161.818 20.3867C161.962 20.2435 162.089 20.0286 162.199 19.7422L162.375 19.293L158.566 8.39453H161.594L163.82 16.207H163.938L166.184 8.39453H169.25L165.109 20.1719C164.79 21.0768 164.312 21.7702 163.674 22.252C163.036 22.7402 162.18 22.9844 161.105 22.9844ZM176.711 11.5391C176.652 11.168 176.467 10.8717 176.154 10.6504C175.842 10.4225 175.448 10.3086 174.973 10.3086C174.66 10.3086 174.377 10.3574 174.123 10.4551C173.876 10.5462 173.68 10.6764 173.537 10.8457C173.394 11.0085 173.326 11.194 173.332 11.4023C173.312 11.9036 173.768 12.2552 174.699 12.457L176.594 12.8477C177.622 13.0625 178.387 13.4043 178.889 13.873C179.396 14.3418 179.654 14.957 179.66 15.7188C179.654 16.4089 179.452 17.0176 179.055 17.5449C178.664 18.0723 178.114 18.4824 177.404 18.7754C176.695 19.0684 175.878 19.2148 174.953 19.2148C174.009 19.2148 173.192 19.0814 172.502 18.8145C171.812 18.541 171.268 18.1536 170.871 17.6523C170.48 17.1445 170.246 16.5456 170.168 15.8555H173.078C173.143 16.2721 173.339 16.5879 173.664 16.8027C173.99 17.0176 174.419 17.125 174.953 17.125C175.48 17.125 175.904 17.0241 176.223 16.8223C176.548 16.6204 176.711 16.3503 176.711 16.0117C176.711 15.7383 176.594 15.5169 176.359 15.3477C176.132 15.1719 175.767 15.0286 175.266 14.918L173.508 14.5664C172.505 14.3711 171.743 14.0163 171.223 13.502C170.702 12.9876 170.448 12.3398 170.461 11.5586C170.454 10.888 170.633 10.3053 170.998 9.81055C171.363 9.30924 171.883 8.92513 172.561 8.6582C173.238 8.39128 174.029 8.25781 174.934 8.25781C175.812 8.25781 176.581 8.39128 177.238 8.6582C177.896 8.92513 178.41 9.30599 178.781 9.80078C179.159 10.2891 179.374 10.8685 179.426 11.5391H176.711ZM187.023 10.5625H185.031V15.7383C185.031 16.1289 185.116 16.4023 185.285 16.5586C185.454 16.7148 185.702 16.7995 186.027 16.8125C186.444 16.8125 186.828 16.793 187.18 16.7539V19.0391C186.835 19.1042 186.32 19.1367 185.637 19.1367C184.549 19.1367 183.693 18.8861 183.068 18.3848C182.443 17.8835 182.134 17.138 182.141 16.1484V10.5625H180.676V8.39453H182.141V5.85547H185.031V8.39453H187.023V10.5625ZM193.527 19.2148C192.453 19.2148 191.522 18.9935 190.734 18.5508C189.953 18.1081 189.351 17.4766 188.928 16.6562C188.505 15.8294 188.293 14.8594 188.293 13.7461C188.293 12.6589 188.501 11.7018 188.918 10.875C189.341 10.0417 189.94 9.39714 190.715 8.94141C191.49 8.48568 192.388 8.25781 193.41 8.25781C194.361 8.25781 195.21 8.45964 195.959 8.86328C196.714 9.26042 197.307 9.86263 197.736 10.6699C198.173 11.4772 198.391 12.4635 198.391 13.6289V14.4492H191.145C191.145 14.9766 191.242 15.4355 191.438 15.8262C191.639 16.2168 191.923 16.5195 192.287 16.7344C192.658 16.9427 193.091 17.0469 193.586 17.0469C194.061 17.0469 194.471 16.9525 194.816 16.7637C195.161 16.5684 195.409 16.3047 195.559 15.9727H198.312C198.176 16.6237 197.896 17.1934 197.473 17.6816C197.049 18.1699 196.499 18.5475 195.822 18.8145C195.152 19.0814 194.387 19.2148 193.527 19.2148ZM195.656 12.6328C195.656 12.2096 195.562 11.832 195.373 11.5C195.191 11.1615 194.934 10.8978 194.602 10.709C194.27 10.5202 193.892 10.4258 193.469 10.4258C193.039 10.4258 192.648 10.5234 192.297 10.7188C191.952 10.9141 191.675 11.181 191.467 11.5195C191.265 11.8581 191.158 12.2292 191.145 12.6328H195.656ZM200.207 8.39453H202.961V10.25H203.078C203.306 9.63151 203.677 9.14648 204.191 8.79492C204.706 8.43685 205.318 8.25781 206.027 8.25781C206.757 8.25781 207.375 8.43685 207.883 8.79492C208.397 9.14648 208.742 9.63151 208.918 10.25H209.016C209.243 9.63802 209.641 9.15299 210.207 8.79492C210.773 8.43685 211.444 8.25781 212.219 8.25781C212.876 8.25781 213.456 8.40104 213.957 8.6875C214.465 8.96745 214.859 9.38086 215.139 9.92773C215.419 10.4681 215.559 11.1159 215.559 11.8711V19H212.668V12.4375C212.668 11.8516 212.515 11.4056 212.209 11.0996C211.91 10.7936 211.509 10.6406 211.008 10.6406C210.467 10.6406 210.044 10.8132 209.738 11.1582C209.439 11.4967 209.289 11.9492 209.289 12.5156V19H206.477V12.3594C206.477 11.8385 206.327 11.4219 206.027 11.1094C205.728 10.7969 205.331 10.6406 204.836 10.6406C204.51 10.6406 204.214 10.7253 203.947 10.8945C203.687 11.0573 203.479 11.2884 203.322 11.5879C203.173 11.8874 203.098 12.2357 203.098 12.6328V19H200.207V8.39453Z" fill="#F6F6F6"/>
</svg>
